/* XPM */
static const char * about_xpm[] = {
"32 32 434 2",
"   c None",
".  c #CCD4E5",
"+  c #ADBCE0",
"@  c #91A6D6",
"#  c #7E97CF",
"$  c #7590CC",
"%  c #758ECA",
"&  c #7F96CB",
"*  c #93A6D0",
"=  c #B3BFD9",
"-  c #B6C1DC",
";  c #7A92CC",
">  c #6887CC",
",  c #6D8ED3",
"'  c #7F9FDC",
")  c #8DABE4",
"!  c #93B1E8",
"~  c #93B0E7",
"{  c #88A7E2",
"]  c #7596D7",
"^  c #6485CB",
"/  c #6482C4",
"(  c #93A6D3",
"_  c #7B94CE",
":  c #6585CD",
"<  c #87A6E3",
"[  c #A4C0F2",
"}  c #B1CCF9",
"|  c #B3CEFA",
"1  c #B4CEFA",
"2  c #B5CFFA",
"3  c #B6D1FB",
"4  c #B8D3FC",
"5  c #BBD5FE",
"6  c #B6D0FB",
"7  c #A0BCEE",
"8  c #6F91D3",
"9  c #5778BE",
"0  c #98A9CF",
"a  c #B2BFDD",
"b  c #6180C8",
"c  c #7B9ADC",
"d  c #A4BFF2",
"e  c #ACC7F6",
"f  c #AAC5F5",
"g  c #A9C5F4",
"h  c #ABC6F5",
"i  c #ABC6F6",
"j  c #A9C5F6",
"k  c #ACC8F7",
"l  c #B0CBF8",
"m  c #B2CCF9",
"n  c #B4CFFA",
"o  c #B9D3FD",
"p  c #BCD7FE",
"q  c #9DBAED",
"r  c #5679C3",
"s  c #7089C1",
"t  c #AEBBDC",
"u  c #5E7EC9",
"v  c #89A7E4",
"w  c #A6C1F3",
"x  c #A3BFF2",
"y  c #A5C1F2",
"z  c #A6C2F3",
"A  c #A5C1F3",
"B  c #ABC6F4",
"C  c #BED3F7",
"D  c #B7CEF7",
"E  c #AFCAF7",
"F  c #B1CCF8",
"G  c #B3CDF9",
"H  c #BAD4FD",
"I  c #B2CDF9",
"J  c #6386CB",
"K  c #637EBB",
"L  c #BEC8E0",
"M  c #89A8E4",
"N  c #A1BDF0",
"O  c #9EBAEE",
"P  c #9FBBEF",
"Q  c #A0BCF0",
"R  c #A2BEF0",
"S  c #A2BEF1",
"T  c #A9C3F2",
"U  c #E3ECFB",
"V  c #FFFFFF",
"W  c #F7F9FE",
"X  c #C3D6F8",
"Y  c #A9C5F5",
"Z  c #ADC8F6",
"`  c #AECAF7",
" . c #B0CAF8",
".. c #B5D0FB",
"+. c #6184CA",
"@. c #6B85BD",
"#. c #6C89CC",
"$. c #7D9CDD",
"%. c #9CB9EE",
"&. c #9AB6EC",
"*. c #9BB7ED",
"=. c #9BB9EF",
"-. c #C1D3F5",
";. c #EBF2FC",
">. c #A7C3F4",
",. c #ACC7F5",
"'. c #AEC9F7",
"). c #B5CFFB",
"!. c #5175BF",
"~. c #8F9FC5",
"{. c #96A9D6",
"]. c #6889D2",
"^. c #97B3EB",
"/. c #96B2EA",
"(. c #98B5EB",
"_. c #9CB8EE",
":. c #99B6ED",
"<. c #B9CDF4",
"[. c #E4ECFB",
"}. c #A9C4F4",
"|. c #ACC8F6",
"1. c #ADC9F6",
"2. c #95B3E9",
"3. c #496BB2",
"4. c #C7CCD6",
"5. c #6785CB",
"6. c #85A3E2",
"7. c #93B0EA",
"8. c #92AFE8",
"9. c #94B0E9",
"0. c #95B2EA",
"a. c #98B4EB",
"b. c #99B6EC",
"c. c #9CB8ED",
"d. c #CDDCF6",
"e. c #F4F8FD",
"f. c #E6EEFB",
"g. c #B0C7F3",
"h. c #A0BDF1",
"i. c #A7C2F3",
"j. c #A8C4F4",
"k. c #AAC5F4",
"l. c #B4CEFB",
"m. c #7D91BC",
"n. c #A7B6DA",
"o. c #6586D0",
"p. c #8FACE7",
"q. c #8EABE7",
"r. c #90ADE7",
"s. c #91AEE8",
"t. c #94B0EA",
"u. c #95B3EA",
"v. c #96B3EB",
"w. c #96B4EC",
"x. c #A0BBEE",
"y. c #9DB9EE",
"z. c #9AB8EE",
"A. c #A0BCEF",
"B. c #A3BEF1",
"C. c #A6C1F2",
"D. c #A8C3F3",
"E. c #91B0E7",
"F. c #5171B3",
"G. c #7E95D0",
"H. c #7594D9",
"I. c #8CA9E6",
"J. c #8BA8E5",
"K. c #8CAAE6",
"L. c #8FADE7",
"M. c #90AEE8",
"N. c #92AFE9",
"O. c #94B1E9",
"P. c #97B4EA",
"Q. c #99B5EB",
"R. c #99B5EC",
"S. c #9EB9EE",
"T. c #9FBAEF",
"U. c #5073BC",
"V. c #A2ACC5",
"W. c #6A87CD",
"X. c #7C9BDD",
"Y. c #88A5E4",
"Z. c #88A6E4",
"`. c #88A7E6",
" + c #C0D1F2",
".+ c #F8FAFE",
"++ c #F5F8FD",
"@+ c #F1F5FC",
"#+ c #E0E9F9",
"$+ c #A0BDF0",
"%+ c #A5C0F2",
"&+ c #ADC8F7",
"*+ c #6083CA",
"=+ c #7B8EB7",
"-+ c #6383CC",
";+ c #7E9DDE",
">+ c #84A2E2",
",+ c #86A4E3",
"'+ c #86A5E4",
")+ c #B2C6EE",
"!+ c #DAE3F7",
"~+ c #EBF0FB",
"{+ c #EEF2FC",
"]+ c #97B4EC",
"^+ c #9AB6ED",
"/+ c #9DBAEF",
"(+ c #A9C4F5",
"_+ c #7193D4",
":+ c #647DB1",
"<+ c #C6D1EB",
"[+ c #6080CB",
"}+ c #7E9CDE",
"|+ c #81A0E0",
"1+ c #82A0E1",
"2+ c #84A2E1",
"3+ c #87A4E3",
"4+ c #88A5E3",
"5+ c #8AA7E4",
"6+ c #87A6E4",
"7+ c #7E9FE2",
"8+ c #B3C7EE",
"9+ c #EAF0FB",
"0+ c #93B0E9",
"a+ c #95B1EA",
"b+ c #98B5EC",
"c+ c #799ADA",
"d+ c #5874AF",
"e+ c #C0CCE6",
"f+ c #7B9ADD",
"g+ c #7E9CDF",
"h+ c #7F9DDF",
"i+ c #819FE0",
"j+ c #82A0E0",
"k+ c #83A1E1",
"l+ c #85A2E2",
"m+ c #86A4E2",
"n+ c #87A5E3",
"o+ c #81A1E2",
"p+ c #B5C8EE",
"q+ c #E9EFFB",
"r+ c #90ADE8",
"s+ c #7999DA",
"t+ c #5572AE",
"u+ c #BFC9E0",
"v+ c #5E7FC9",
"w+ c #7796DB",
"x+ c #7C9ADD",
"y+ c #7D9CDE",
"z+ c #809FE0",
"A+ c #7E9EE1",
"B+ c #B4C6ED",
"C+ c #E9EFFA",
"D+ c #8DAAE6",
"E+ c #9FBBF0",
"F+ c #7192D4",
"G+ c #5B76AE",
"H+ c #7191D8",
"I+ c #7897DC",
"J+ c #7998DC",
"K+ c #7B99DD",
"L+ c #809EDF",
"M+ c #7B9BDF",
"N+ c #B2C5EC",
"O+ c #E8EEFA",
"P+ c #8AA8E5",
"Q+ c #8CA9E5",
"R+ c #8EABE6",
"S+ c #96B3EA",
"T+ c #9DB9EF",
"U+ c #6184CB",
"V+ c #6B81B0",
"W+ c #6A86C8",
"X+ c #6989D4",
"Y+ c #7695DB",
"Z+ c #7695DA",
"`+ c #7897DB",
" @ c #7B99DC",
".@ c #7F9DDE",
"+@ c #7898DD",
"@@ c #B0C3EB",
"#@ c #E8EDFA",
"$@ c #89A6E4",
"%@ c #99B5ED",
"&@ c #4C71BD",
"*@ c #8494B4",
"=@ c #8EA2D2",
"-@ c #5B7CCB",
";@ c #7493DA",
">@ c #7392D9",
",@ c #7896DB",
"'@ c #7997DC",
")@ c #7A99DC",
"!@ c #7595DB",
"~@ c #AEC1EA",
"{@ c #E7EDF9",
"]@ c #86A3E2",
"^@ c #4568B0",
"/@ c #AAB1BF",
"(@ c #CBD4EB",
"_@ c #5476C3",
":@ c #6D8DD6",
"<@ c #7190D8",
"[@ c #7291D8",
"}@ c #7494DA",
"|@ c #6F90DA",
"1@ c #ABBEE9",
"2@ c #E6ECF9",
"3@ c #7F9DE0",
"4@ c #8AA8E4",
"5@ c #6487CF",
"6@ c #5873AB",
"7@ c #CBCAC8",
"8@ c #7690CB",
"9@ c #5A7CCB",
"0@ c #6F8ED7",
"a@ c #6F8ED6",
"b@ c #7090D8",
"c@ c #7493D9",
"d@ c #ADC0E9",
"e@ c #84A1E1",
"f@ c #4066B3",
"g@ c #919DB6",
"h@ c #C4CFE6",
"i@ c #4E70BE",
"j@ c #6687D2",
"k@ c #6D8CD6",
"l@ c #708FD8",
"m@ c #688AD5",
"n@ c #ADBFE9",
"o@ c #EEF2FA",
"p@ c #F6F8FC",
"q@ c #FDFEFF",
"r@ c #F0F4FB",
"s@ c #E2E9F8",
"t@ c #83A0E0",
"u@ c #8BA8E6",
"v@ c #567AC5",
"w@ c #5571AB",
"x@ c #C7C7C6",
"y@ c #879CCA",
"z@ c #4B6FC1",
"A@ c #6988D4",
"B@ c #6B8BD5",
"C@ c #6C8BD5",
"D@ c #6486D4",
"E@ c #B6C5EA",
"F@ c #F4F7FC",
"G@ c #819EDF",
"H@ c #7B9ADE",
"I@ c #87A4E4",
"J@ c #6688D0",
"K@ c #3B60AA",
"L@ c #A8AEBC",
"M@ c #718AC5",
"N@ c #4C70C1",
"O@ c #6887D3",
"P@ c #6A89D5",
"Q@ c #6A89D4",
"R@ c #7A97D9",
"S@ c #8AA3DE",
"T@ c #8BA4DF",
"U@ c #8CA5DF",
"V@ c #8DA7E0",
"W@ c #8FA8E0",
"X@ c #90A9E1",
"Y@ c #91AAE2",
"Z@ c #8FA8E1",
"`@ c #7A99DD",
" # c #7D9BDE",
".# c #6889D1",
"+# c #375DAC",
"@# c #8C9AB5",
"## c #D3D1CD",
"$# c #6E88C2",
"%# c #486CBF",
"&# c #6383D0",
"*# c #6989D5",
"=# c #6687D3",
"-# c #6486D3",
";# c #6687D4",
"># c #6788D4",
",# c #698AD5",
"'# c #6A8BD6",
")# c #6C8CD7",
"!# c #6E8ED7",
"~# c #7090D9",
"{# c #5A7EC9",
"]# c #385EAB",
"^# c #8896B4",
"/# c #CFCCC9",
"(# c #8297C6",
"_# c #476AB9",
":# c #5477C8",
"<# c #6586D2",
"[# c #6A8AD5",
"}# c #6E8ED6",
"|# c #7391D9",
"1# c #7593DA",
"2# c #6789D2",
"3# c #446ABB",
"4# c #4666AB",
"5# c #98A2B8",
"6# c #D0CECA",
"7# c #AAB5CD",
"8# c #627DB9",
"9# c #4E72C3",
"0# c #5B7DCC",
"a# c #6182D0",
"b# c #6686D3",
"c# c #6888D3",
"d# c #6385D1",
"e# c #587BC9",
"f# c #4467AE",
"g# c #7186B0",
"h# c #B8BBC2",
"i# c #AEB8CE",
"j# c #768EBD",
"k# c #5371B5",
"l# c #496CB6",
"m# c #466AB8",
"n# c #4469B8",
"o# c #4468B7",
"p# c #4568B5",
"q# c #4668B0",
"r# c #5774AF",
"s# c #7F90B4",
"t# c #B0B5BF",
"u# c #D1CFCC",
"v# c #B2B9C8",
"w# c #A0ABC2",
"x# c #97A4BF",
"y# c #9AA6BF",
"z# c #A5AEC1",
"A# c #B9BDC6",
"                                                                ",
"                                                                ",
"                        . + @ # $ % & * =                       ",
"                    - ; > , ' ) ! ~ { ] ^ / (                   ",
"                  _ : < [ } | 1 2 3 4 5 6 7 8 9 0               ",
"              a b c d e f g h i j k l m n o p q r s             ",
"            t u v w x d y z A B C D i E l F G H I J K           ",
"          L u M N O P Q R S T U V W X Y Z `  .F 6 ..+.@.        ",
"          #.$.%.&.*.%.O P =.-.V V V ;.>.g ,.Z '.E ).'.!.~.      ",
"        {.].^./.^.(.&.*._.:.<.V V V [.d z }.f h |.1.6 2.3.4.    ",
"        5.6.7.8.9.0.^.a.b.&.c.d.e.f.g.h.[ y i.j.k.h Z l.J m.    ",
"      n.o.p.q.r.s.8.t.0.u.v.v.w.x.y.z.A.N B.[ C.i.D.}.l E.F.    ",
"      G.H.I.J.K.q.L.M.N.O.P.Q.Q.R.*.S.y.T.A.N S [ y z }.j.U.V.  ",
"      W.X.Y.Z.v J.K.q.`. +.+++@+@+@+#+R.*.y.O P $+S x %+&+*+=+  ",
"      -+;+>+6.,+Y.v J.'+)+!+~+V V V {+v.]+^+*.%./+P Q S (+_+:+  ",
"    <+[+}+|+1+2+6.3+4+5+6+7+8+V V V 9+0+a+^.b+&.*._.O P w c+d+  ",
"    e+u f+g+h+i+j+k+l+m+n+o+p+V V V q+r+8.O.0.^.(.b.*._.B.s+t+  ",
"    u+v+w+f+x+y+h+z+j+k+>+A+B+V V V C+D+p.s.N.0+0.v.a.R.E+F+G+  ",
"      b H+I+J+K+X.}+h+L+j+M+N+V V V O+P+Q+R+r.s.8.0+0.S+T+U+V+  ",
"      W+X+Y+Z+`+J+ @x+y+.@+@@@V V V #@n+$@J.D+q.p.r.8.0+%@&@*@  ",
"      =@-@;@>@H.Z+,@'@)@f+!@~@V V V {@2+]@4+v J.Q+D+p.0+n+^@/@  ",
"      (@_@:@<@[@>@}@Y+,@w+|@1@V V V 2@3@i+6.,+4+v 4@I.7.5@6@7@  ",
"        8@9@0@a@b@[@>@c@,@;@d@V V V {@j+e@1+e@6.,+4+J.n+f@g@    ",
"        h@i@j@k@:@0@l@m@n@o@p@V V V q@r@s@t@h+j+k+6.u@v@w@x@    ",
"          y@z@A@B@C@k@D@E@V V V V V V V F@G@H@h+z+I@J@K@L@      ",
"            M@N@O@P@P@Q@R@S@T@U@V@W@X@Y@Z@)@`@ #1+.#+#@###      ",
"              $#%#&#*#Q@=#-#;#>#,#'#)#!#~#Z+K+H@{#]#^#/#        ",
"                (#_#:#<#P@,#[#B@k@}#b@|#1#Y+2#3#4#5#6#          ",
"                  7#8#_#9#0#a#b#X+Q@c#d#e#3#f#g#h#              ",
"                      i#j#k#l#m#n#o#p#q#r#s#t#u#                ",
"                            v#w#x#y#z#A#                        ",
"                                                                "};
