/* XPM */
static const char * addFolder_xpm[] = {
"38 32 337 2",
"   c None",
".  c #726E66",
"+  c #5F6160",
"@  c #2C1E1A",
"#  c #2E3F50",
"$  c #3D5B72",
"%  c #736C37",
"&  c #6B572A",
"*  c #5C4E32",
"=  c #3E5766",
"-  c #494A4B",
";  c #38444D",
">  c #3A4C51",
",  c #606D59",
"'  c #5B603A",
")  c #65652D",
"!  c #878740",
"~  c #9A8B43",
"{  c #978952",
"]  c #648289",
"^  c #9B876F",
"/  c #605C55",
"(  c #686D56",
"_  c #C1C979",
":  c #D6D76A",
"<  c #DEDC5E",
"[  c #E3E265",
"}  c #D8CB5F",
"|  c #BAAD65",
"1  c #71888E",
"2  c #7B7062",
"3  c #7F8066",
"4  c #B3C383",
"5  c #E0E777",
"6  c #FEFC6C",
"7  c #FFFF6F",
"8  c #F4EA69",
"9  c #CEC367",
"0  c #717A74",
"a  c #677B8A",
"b  c #92907D",
"c  c #819C83",
"d  c #C9D679",
"e  c #FFFF70",
"f  c #FFFF6E",
"g  c #FDF96A",
"h  c #DAD262",
"i  c #736B53",
"j  c #646E74",
"k  c #000000",
"l  c #98947B",
"m  c #677768",
"n  c #BDC571",
"o  c #FEFF77",
"p  c #FFFF72",
"q  c #FCFA6D",
"r  c #E1DC63",
"s  c #98884D",
"t  c #6E7367",
"u  c #4A7195",
"v  c #202020",
"w  c #373615",
"x  c #525100",
"y  c #616100",
"z  c #525200",
"A  c #999277",
"B  c #5C645A",
"C  c #ACB067",
"D  c #E1E16C",
"E  c #CACA5B",
"F  c #BBBB53",
"G  c #A4A24B",
"H  c #7F733F",
"I  c #555445",
"J  c #354454",
"K  c #0B0A0B",
"L  c #4D4C4D",
"M  c #8A883C",
"N  c #C3C006",
"O  c #E6E606",
"P  c #999903",
"Q  c #0D0C00",
"R  c #0F0F00",
"S  c #565853",
"T  c #93955B",
"U  c #B1B156",
"V  c #777534",
"W  c #4A4B23",
"X  c #2E2F1D",
"Y  c #39382A",
"Z  c #2D2419",
"`  c #27211C",
" . c #3C5E77",
".. c #161616",
"+. c #9F9F9F",
"@. c #ABAB94",
"#. c #797841",
"$. c #848341",
"%. c #8A8927",
"&. c #908E00",
"*. c #ABAB00",
"=. c #818100",
"-. c #7E6F55",
";. c #2B2F2E",
">. c #4A5342",
",. c #6E7A54",
"'. c #1B1B1B",
"). c #C3C3C3",
"!. c #D4D3D4",
"~. c #969596",
"{. c #888688",
"]. c #8D8B5C",
"^. c #9F9D22",
"/. c #B7B622",
"(. c #959515",
"_. c #4A4900",
":. c #515100",
"<. c #606000",
"[. c #3A3A00",
"}. c #26353B",
"|. c #273B44",
"1. c #FEFEFE",
"2. c #F9F9F9",
"3. c #D5D3D5",
"4. c #9D9B9D",
"5. c #5D5C5D",
"6. c #82813C",
"7. c #C2BF03",
"8. c #C4C101",
"9. c #D8D600",
"0. c #FDFD00",
"a. c #5F5F02",
"b. c #030303",
"c. c #EEEDEE",
"d. c #D9D7D9",
"e. c #E7E6E7",
"f. c #D0CED0",
"g. c #A4A1A4",
"h. c #95937E",
"i. c #7D7C3C",
"j. c #AEAB14",
"k. c #CBC900",
"l. c #D7D500",
"m. c #767527",
"n. c #3E3D3E",
"o. c #191919",
"p. c #B3B3B3",
"q. c #E3E1E2",
"r. c #D8D5D6",
"s. c #D9D7D7",
"t. c #CFCFD1",
"u. c #BFC2C8",
"v. c #C3C2C6",
"w. c #ABA9AB",
"x. c #807E7C",
"y. c #96943D",
"z. c #A09E1F",
"A. c #8B8931",
"B. c #6F6E34",
"C. c #151415",
"D. c #969496",
"E. c #DCDADA",
"F. c #F4F1EE",
"G. c #ADAAA7",
"H. c #9EA3A5",
"I. c #B3C2CE",
"J. c #C0C2C8",
"K. c #C5C2C5",
"L. c #C2BFC2",
"M. c #7C7A7C",
"N. c #5A595A",
"O. c #9E9B21",
"P. c #8C8A00",
"Q. c #0A0A00",
"R. c #161515",
"S. c #A09B98",
"T. c #B1A7A2",
"U. c #80726D",
"V. c #5B626B",
"W. c #788692",
"X. c #BBC5CD",
"Y. c #C2C3C7",
"Z. c #C4C1C4",
"`. c #ACA9AC",
" + c #A09EA0",
".+ c #929092",
"++ c #918F91",
"@+ c #A09DA0",
"#+ c #66643B",
"$+ c #565400",
"%+ c #7E7C00",
"&+ c #6E6C2D",
"*+ c #151813",
"=+ c #1D1C15",
"-+ c #928E7B",
";+ c #96886F",
">+ c #5E4A33",
",+ c #48565F",
"'+ c #728594",
")+ c #C1C5CA",
"!+ c #C4C3C7",
"~+ c #C1BEC1",
"{+ c #BBB8BB",
"]+ c #B3B0B3",
"^+ c #B2AFB2",
"/+ c #BAB7BA",
"(+ c #454445",
"_+ c #393800",
":+ c #BBB800",
"<+ c #848236",
"[+ c #4A4B4A",
"}+ c #333F4A",
"|+ c #2A4150",
"1+ c #3F4F50",
"2+ c #2F3529",
"3+ c #292914",
"4+ c #6A6A3A",
"5+ c #8C8144",
"6+ c #968147",
"7+ c #798A86",
"8+ c #90A2AF",
"9+ c #A5A2A5",
"0+ c #B9B6B9",
"a+ c #A6A3A6",
"b+ c #3D3C3D",
"c+ c #867765",
"d+ c #605D56",
"e+ c #50574F",
"f+ c #9FA86D",
"g+ c #B1B55F",
"h+ c #ADAB49",
"i+ c #C6C65A",
"j+ c #CBC15B",
"k+ c #BEAA5A",
"l+ c #85948B",
"m+ c #91A2AF",
"n+ c #C5C4C7",
"o+ c #C5C3C6",
"p+ c #B7B4B7",
"q+ c #3C3B3C",
"r+ c #807363",
"s+ c #6C6B5A",
"t+ c #B2BD7C",
"u+ c #DFE679",
"v+ c #FDFA6B",
"w+ c #FEFE6F",
"x+ c #F4EC6A",
"y+ c #DCCC65",
"z+ c #89907D",
"A+ c #8B97A2",
"B+ c #C0C5CB",
"C+ c #BCB9BC",
"D+ c #918877",
"E+ c #8BA184",
"F+ c #BECE7D",
"G+ c #EDE464",
"H+ c #847D5A",
"I+ c #7E8186",
"J+ c #B6C4D0",
"K+ c #C0C3C8",
"L+ c #A7A4A7",
"M+ c #A3997F",
"N+ c #748370",
"O+ c #ACB872",
"P+ c #FEFF76",
"Q+ c #FDFB6D",
"R+ c #F0EB67",
"S+ c #9F9352",
"T+ c #807F71",
"U+ c #8599AE",
"V+ c #A3ACB4",
"W+ c #B3B4B7",
"X+ c #ADAAAD",
"Y+ c #B3A684",
"Z+ c #656C5F",
"`+ c #9CA366",
" @ c #EFEF73",
".@ c #E2E167",
"+@ c #D1D15D",
"@@ c #BDBC54",
"#@ c #908543",
"$@ c #6D6952",
"%@ c #556476",
"&@ c #82909B",
"*@ c #A4ABB2",
"=@ c #61635B",
"-@ c #8C8E5C",
";@ c #C6C660",
">@ c #908F41",
",@ c #5D5C2A",
"'@ c #35361D",
")@ c #383624",
"!@ c #332D21",
"~@ c #2D2520",
"{@ c #5E6F7E",
"]@ c #8697A7",
"^@ c #40413B",
"/@ c #525944",
"(@ c #879059",
"_@ c #71733C",
":@ c #231D13",
"<@ c #1D140C",
"[@ c #373F44",
"}@ c #676F76",
"|@ c #9B825B",
"1@ c #2F3533",
"2@ c #213138",
"3@ c #140D07",
"4@ c #1E1C1A",
"5@ c #4A4A4A",
"6@ c #807E80",
"7@ c #8C8A8C",
"8@ c #78772B",
"9@ c #414041",
"0@ c #997E56",
"a@ c #566F77",
"b@ c #141414",
"c@ c #464446",
"d@ c #555307",
"e@ c #090809",
"f@ c #010101",
"g@ c #282828",
"h@ c #4D4B4D",
"i@ c #686668",
"j@ c #A29FA2",
"k@ c #4E4D00",
"l@ c #302F30",
"m@ c #828082",
"n@ c #313031",
"o@ c #2E2E00",
"p@ c #989500",
"q@ c #3F3E00",
"r@ c #1A191A",
"s@ c #090909",
"t@ c #090900",
"u@ c #1D1D00",
"v@ c #0C0C00",
"                                                                    .       ",
"                                                                    +       ",
"                                                                  @ # $     ",
"                                                              % & * =       ",
"                                                  - ; > , ' ) ! ~ { ]       ",
"                                                  ^ / ( _ : < [ } | 1       ",
"                                                    2 3 4 5 6 7 8 9 0 a     ",
"                                                      b c d e f g h i j     ",
"                k k k k                               l m n o p q r s t u   ",
"                v w x y z                             A B C D E F G H I J   ",
"              K L M N O P Q R R                         S T U V W X Y Z `  .",
"              ..+.@.#.$.%.&.*.=.k k k k k k k         -.;.>.,.              ",
"              '.).!.~.{.].^./.(._._.:.<.<.<.<.[.        }.|.                ",
"              '.).1.2.3.4.5.5.6.7.8.9.0.0.0.0.a.b.                          ",
"              '.).c.d.e.f.g.g.h.i.j.k.l.l.l.l.m.n.                          ",
"              o.p.q.r.s.t.u.v.w.x.y.z.z.z.z.z.A.B.                          ",
"              C.D.E.F.G.H.I.J.K.L.M.N.N.N.N.N.O.P.Q.                        ",
"              R.S.T.U.V.W.X.Y.K.Z.`. + +.+++@+#+$+%+&+                      ",
"            *+=+-+;+>+,+'+)+!+K.K.K.~+{+]+^+/+(+_+:+<+N.                    ",
"    [+}+|+1+2+3+4+5+6+7+8+K.K.K.K.K./+9+0+/+a+b+_+:+<+N.                    ",
"    c+d+e+f+g+h+i+j+k+l+m+n+o+K.Z.p+]+0+]+`.g.q+_+:+<+N.                    ",
"      r+s+t+u+v+w+x+y+z+A+B+!+L.{+^+^+C+`.g.g.q+_+:+<+N.                    ",
"        D+E+F+7 f g G+H+I+J+K+/+L+/+0+a+9+g.g.q+_+:+<+N.                    ",
"        M+N+O+P+p Q+R+S+T+U+V+W+p+]+X+g.g.g.g.q+_+:+<+N.                    ",
"        Y+Z+`+ @.@+@@@#@$@%@&@*@C+`.g.g.g.g.g.q+_+:+<+N.                    ",
"          =@-@;@>@,@'@)@!@~@{@]@L+9+g.g.g.g.g.q+_+:+<+N.                    ",
"          ^@/@(@_@      :@<@[@}@g.g.g.g.g.g.g.q+_+:+<+N.                    ",
"        |@1@2@            3@4@5@6@6@7@g.g.g.g.q+_+:+8@9@                    ",
"        0@a@                    b@b@c@g.g.g.g.q+_+:+d@e@f@                  ",
"                                    g@h@h@i@j@q+_+:+k@k k                   ",
"                                      k k l@m@n@o@p@q@k k                   ",
"                                            r@s@t@u@v@k                     "};
