/* XPM */
static const char * addTerm_xpm[] = {
"32 32 14 1",
"   c None",
".  c #283C50",
"+  c #8098A8",
"@  c #90B0B8",
"#  c #808080",
"$  c #384448",
"%  c #A0A0A0",
"&  c #F8FCF8",
"*  c #E0E4E0",
"=  c #888888",
"-  c #D8DCD8",
";  c #989C98",
">  c #98B4C8",
",  c #C8CCC8",
"                                ",
"                                ",
"     ............+@             ",
"     .#+++++++++$..@            ",
"     .%&&&&&&&**=.+.@           ",
"     .%&&&&&&&&*=.&+.@          ",
"     .%&&&&&&&&-=.&&+.@         ",
"     .%&&&&&&&&-%.&&&+.@        ",
"     .%&&&&&&&&-%.&&&&+.@       ",
"     .%&&&&&&&&-%.&&&&&+.@      ",
"     .%&&&&&&&&*%.&&&&&&+.@     ",
"     .%&&&&&&&&*;.........+>    ",
"     .%&&&&&&&&*,;%%%%%==$.>    ",
"     .%&&&&&&&&****----**%.>    ",
"     .%&&&&&&&&&&&&&&&&&*%.>    ",
"     .%&&&&&&&&&&&&&&&&&&%.>    ",
"     .%&&&&&&&&&&&&&&&&&&%.>    ",
"     .%&&&&&&&&&&&&&&&&&&%.>    ",
"     .%&&&&&&&&&&&&&&&&&&%.>    ",
"     .%&&&&&&&&&&&&&&&&&&%.>    ",
"     .%&&&&&&&&&&&&&&&&&&%.>    ",
"     .%&&&&&&&&&&&&&&&&&&%.>    ",
"     .%&&&&&&&&&&&&&&&&&&%.>    ",
"     .%&&&&&&&&&&&&&&&&&&%.>    ",
"     .%&&&&&&&&&&&&&&&&&&%.>    ",
"     .%&&&&&&&&&&&&&&&&&&%.>    ",
"     .%&&&&&&&&&&&&&&&&&&%.>    ",
"     .%&&&&&&&&&&&&&&&&&&%.>    ",
"     .#%%%%%%%%%%%%%%%%%%#.>    ",
"     ......................+    ",
"                                ",
"                                "};
