/* XPM */
static const char * addVocab_xpm[] = {
"38 32 376 2",
"   c None",
".  c #726E66",
"+  c #5F6160",
"@  c #2C1E1A",
"#  c #2E3F50",
"$  c #3D5B72",
"%  c #736C37",
"&  c #6B572A",
"*  c #5C4E32",
"=  c #3E5766",
"-  c #8E7D5A",
";  c #4B4B4C",
">  c #38444D",
",  c #3A4C51",
"'  c #606D59",
")  c #5B603A",
"!  c #65652D",
"~  c #878740",
"{  c #9A8B43",
"]  c #978952",
"^  c #648289",
"/  c #9A866F",
"(  c #605C55",
"_  c #686D56",
":  c #C1C979",
"<  c #D6D76A",
"[  c #DEDC5E",
"}  c #E3E265",
"|  c #D8CB5F",
"1  c #BAAD65",
"2  c #71888E",
"3  c #7B7062",
"4  c #7F8066",
"5  c #B3C383",
"6  c #E0E777",
"7  c #FEFC6C",
"8  c #FFFF6F",
"9  c #F4EA69",
"0  c #CEC367",
"a  c #717A74",
"b  c #677B8A",
"c  c #92907D",
"d  c #819C83",
"e  c #C9D679",
"f  c #FFFF70",
"g  c #FFFF6E",
"h  c #FDF96A",
"i  c #DAD262",
"j  c #736B53",
"k  c #646E74",
"l  c #2B0000",
"m  c #99947B",
"n  c #677868",
"o  c #BDC571",
"p  c #FEFF77",
"q  c #FFFF72",
"r  c #FCFA6D",
"s  c #E1DC63",
"t  c #98884D",
"u  c #6E7367",
"v  c #4A7195",
"w  c #4C0000",
"x  c #5D0000",
"y  c #700000",
"z  c #820000",
"A  c #6A0000",
"B  c #9B9378",
"C  c #5C645B",
"D  c #ACB067",
"E  c #E1E16C",
"F  c #CACA5B",
"G  c #BBBB53",
"H  c #A4A24B",
"I  c #7F733F",
"J  c #555445",
"K  c #354454",
"L  c #460000",
"M  c #690000",
"N  c #950000",
"O  c #C70000",
"P  c #FF0000",
"Q  c #AB0000",
"R  c #720000",
"S  c #565853",
"T  c #93955B",
"U  c #B1B156",
"V  c #777534",
"W  c #4A4B23",
"X  c #2E2F1D",
"Y  c #39382A",
"Z  c #2D2419",
"`  c #28211D",
" . c #3E6078",
".. c #230000",
"+. c #4A0000",
"@. c #790000",
"#. c #A70000",
"$. c #D20000",
"%. c #DF0000",
"&. c #EE0000",
"*. c #E60000",
"=. c #BC0000",
"-. c #817156",
";. c #2C2F2E",
">. c #4A5342",
",. c #6E7A54",
"'. c #7A0000",
"). c #920000",
"!. c #B50000",
"~. c #D90000",
"{. c #E50000",
"]. c #AD0000",
"^. c #7D0000",
"/. c #817053",
"(. c #29373C",
"_. c #283B44",
":. c #140000",
"<. c #2C0000",
"[. c #AA0000",
"}. c #E10000",
"|. c #F40000",
"1. c #FC0000",
"2. c #6C0000",
"3. c #8D7D5E",
"4. c #548196",
"5. c #740000",
"6. c #A00000",
"7. c #C10000",
"8. c #E40000",
"9. c #F50000",
"0. c #FB0000",
"a. c #FE0000",
"b. c #B70000",
"c. c #620000",
"d. c #3D0000",
"e. c #830000",
"f. c #C20101",
"g. c #FB0504",
"h. c #E91211",
"i. c #E91414",
"j. c #F50E11",
"k. c #FC0405",
"l. c #9E0000",
"m. c #760000",
"n. c #3A0000",
"o. c #580000",
"p. c #6D0000",
"q. c #A90503",
"r. c #F50E0B",
"s. c #BE3430",
"t. c #BE393B",
"u. c #E12831",
"v. c #F60C0F",
"w. c #9F0000",
"x. c #590000",
"y. c #2E0000",
"z. c #E90202",
"A. c #98110B",
"B. c #781009",
"C. c #750F0A",
"D. c #5F313A",
"E. c #91343E",
"F. c #EC2126",
"G. c #F90A0C",
"H. c #DE0000",
"I. c #B20000",
"J. c #660000",
"K. c #2E1213",
"L. c #720E0B",
"M. c #CA1108",
"N. c #9D3A1F",
"O. c #6C3F1F",
"P. c #51331B",
"Q. c #40424B",
"R. c #833442",
"S. c #F51517",
"T. c #FC0607",
"U. c #4A4B4A",
"V. c #333F4A",
"W. c #2A3C4A",
"X. c #383334",
"Y. c #592920",
"Z. c #7D2812",
"`. c #815E2E",
" + c #8C783A",
".+ c #937D42",
"++ c #676864",
"@+ c #973B46",
"#+ c #FC0303",
"$+ c #FE0101",
"%+ c #A10000",
"&+ c #550000",
"*+ c #867765",
"=+ c #605D56",
"-+ c #4F554E",
";+ c #919460",
">+ c #B5A658",
",+ c #CBAB49",
"'+ c #CFC257",
")+ c #CBBE59",
"!+ c #BDA858",
"~+ c #7C8178",
"{+ c #7B4956",
"]+ c #AA0C0C",
"^+ c #E40404",
"/+ c #FD0000",
"(+ c #F70000",
"_+ c #E20000",
":+ c #0E0000",
"<+ c #807363",
"[+ c #6C6B5A",
"}+ c #B2BD7C",
"|+ c #DFE679",
"1+ c #FDFA6B",
"2+ c #FEFE6F",
"3+ c #F4EC6A",
"4+ c #DCCB64",
"5+ c #868A76",
"6+ c #68545F",
"7+ c #792125",
"8+ c #BC090A",
"9+ c #F90000",
"0+ c #EB0000",
"a+ c #CB0404",
"b+ c #A20F0F",
"c+ c #680A0A",
"d+ c #360505",
"e+ c #0A0101",
"f+ c #918877",
"g+ c #8BA184",
"h+ c #BECE7D",
"i+ c #EDE464",
"j+ c #837D59",
"k+ c #66575D",
"l+ c #8A5A6C",
"m+ c #7A1216",
"n+ c #BD0000",
"o+ c #9D0000",
"p+ c #720E0E",
"q+ c #373030",
"r+ c #1E2121",
"s+ c #101212",
"t+ c #A3997F",
"u+ c #748370",
"v+ c #ACB872",
"w+ c #FEFF76",
"x+ c #FDFB6D",
"y+ c #F0EB67",
"z+ c #9F9352",
"A+ c #7A6758",
"B+ c #715570",
"C+ c #7B2E38",
"D+ c #930D0E",
"E+ c #A90000",
"F+ c #E30000",
"G+ c #F20000",
"H+ c #BB0000",
"I+ c #8F0A0A",
"J+ c #722020",
"K+ c #632D2D",
"L+ c #614747",
"M+ c #707373",
"N+ c #484D4D",
"O+ c #282B2B",
"P+ c #B3A684",
"Q+ c #656C5F",
"R+ c #9CA366",
"S+ c #EFEF73",
"T+ c #E2E167",
"U+ c #D5D55F",
"V+ c #C5C458",
"W+ c #968644",
"X+ c #715D46",
"Y+ c #564154",
"Z+ c #774555",
"`+ c #81262D",
" @ c #E70000",
".@ c #E00000",
"+@ c #CA0202",
"@@ c #BC0606",
"#@ c #7E1515",
"$@ c #572A2A",
"%@ c #4F4848",
"&@ c #4E5858",
"*@ c #606F6F",
"=@ c #949696",
"-@ c #5C5C5C",
";@ c #2F2F2F",
">@ c #61635B",
",@ c #8C8E5C",
"'@ c #C6C660",
")@ c #908F41",
"!@ c #64632D",
"~@ c #404022",
"{@ c #483926",
"]@ c #3F2B1F",
"^@ c #2F1C17",
"/@ c #633F4E",
"(@ c #814154",
"_@ c #A60000",
":@ c #900101",
"<@ c #530808",
"[@ c #461616",
"}@ c #594C4C",
"|@ c #6A7070",
"1@ c #757979",
"2@ c #767979",
"3@ c #727373",
"4@ c #1C1C1C",
"5@ c #0C0C0C",
"6@ c #020202",
"7@ c #40413B",
"8@ c #525944",
"9@ c #879059",
"0@ c #71733C",
"a@ c #32251B",
"b@ c #441911",
"c@ c #59120A",
"d@ c #9C2B30",
"e@ c #C02830",
"f@ c #CD0000",
"g@ c #6D0202",
"h@ c #5D0707",
"i@ c #7C0D0D",
"j@ c #693030",
"k@ c #5F4848",
"l@ c #5E5454",
"m@ c #686969",
"n@ c #6A7272",
"o@ c #5E6161",
"p@ c #5A5B5B",
"q@ c #434242",
"r@ c #0B0B0B",
"s@ c #050505",
"t@ c #9B825B",
"u@ c #2F3533",
"v@ c #213138",
"w@ c #750C06",
"x@ c #B81715",
"y@ c #D61212",
"z@ c #DC0000",
"A@ c #651010",
"B@ c #242828",
"C@ c #3A3636",
"D@ c #5C5D5D",
"E@ c #717575",
"F@ c #767A7A",
"G@ c #6E7070",
"H@ c #575757",
"I@ c #000000",
"J@ c #997E56",
"K@ c #566F77",
"L@ c #7B0404",
"M@ c #AA0303",
"N@ c #E00101",
"O@ c #622424",
"P@ c #4B5858",
"Q@ c #969595",
"R@ c #787878",
"S@ c #4B4D4D",
"T@ c #030303",
"U@ c #010101",
"V@ c #770000",
"W@ c #910101",
"X@ c #441A1A",
"Y@ c #394343",
"Z@ c #8B8B8B",
"`@ c #4F4F4F",
" # c #272727",
".# c #1A1A1A",
"+# c #450000",
"@# c #1E0A0A",
"## c #0F1414",
"$# c #060202",
"%# c #020303",
"&# c #040404",
"                                                                    .       ",
"                                                                    +       ",
"                                                                  @ # $     ",
"                                                              % & * =       ",
"                                                - ; > , ' ) ! ~ { ] ^       ",
"                                                  / ( _ : < [ } | 1 2       ",
"                                                    3 4 5 6 7 8 9 0 a b     ",
"                                                      c d e f g h i j k     ",
"                                      l               m n o p q r s t u v   ",
"                                w x y z A             B C D E F G H I J K   ",
"                              L M N O P Q R             S T U V W X Y Z `  .",
"                        ..+.@.#.$.%.&.P *.=.y         -.;.>.,.              ",
"                      x '.).!.~.P P P P P {.].^.      /.(._.                ",
"                  :.<.[.}.|.1.P P P P P P P P [.2.    3.4.                  ",
"              ..5.6.7.8.9.0.a.P P P P P P P P 8.b.c.                        ",
"            <.d.e.f.g.h.i.j.k.P P P P P P P P P }.l.m.                      ",
"          n.o.  p.q.r.s.t.u.v.P P P P P P P P P P P w.x.                    ",
"          y.5.z.A.B.C.D.E.F.G.P P P P P P P P P P P H.I.J.                  ",
"          K.L.M.N.O.P.Q.R.S.T.P P P P P P P P P P P P 8.6.5.                ",
"    U.V.W.X.Y.Z.`. +.+++@+#+$+P P P P P P P P P P P P a.0.%+&+              ",
"    *+=+-+;+>+,+'+)+!+~+{+]+^+/+P P P P P P P P P P P (+_+).+.:+            ",
"      <+[+}+|+1+2+3+4+5+6+7+8+8.P P P P P P P P 9+0+_+a+b+c+d+e+            ",
"        f+g+h+8 g h i+j+k+l+m+[.P P P P P P P P 0+n+o+p+q+r+s+              ",
"        t+u+v+w+q x+y+z+A+B+C+D+E+F+P P P 0.G+H+I+J+K+L+M+N+O+              ",
"        P+Q+R+S+T+U+V+W+X+Y+Z+`+5.n+ @/+.@+@@@#@$@%@&@*@=@-@;@              ",
"          >@,@'@)@!@~@{@]@^@/@(@  ^._@9+:@<@[@}@|@1@2@3@  4@5@6@            ",
"          7@8@9@0@    a@b@c@d@e@f@g@h@i@j@k@l@m@n@o@p@q@r@s@                ",
"        t@u@v@            w@x@y@z@A@B@C@D@E@F@G@H@      I@                  ",
"        J@K@                L@M@N@O@P@Q@R@p@S@    T@U@                      ",
"                              V@W@X@Y@Z@`@ #.#                              ",
"                                +#@###    I@I@                              ",
"                                  $#%#&#                                    "};
