/* XPM */
static const char * backward_xpm[] = {
"32 32 256 2",
"   c None",
".  c #E5E3E4",
"+  c #EDEAED",
"@  c #FFFDFF",
"#  c #F0EEF0",
"$  c #EAE9EA",
"%  c #EBEAEC",
"&  c #E3E2E4",
"*  c #F8F6FC",
"=  c #F3F1F9",
"-  c #F4F3F7",
";  c #F2F1FA",
">  c #F4F3FB",
",  c #EEEDF5",
"'  c #EBEBF1",
")  c #EEEEF2",
"!  c #F2F2F5",
"~  c #EFEFF1",
"{  c #ECECEE",
"]  c #F1F1F2",
"^  c #EEEEEF",
"/  c #F2F3FB",
"(  c #F0F1F8",
"_  c #EFF0F6",
":  c #E4E5EB",
"<  c #F5F6FB",
"[  c #F2F3F8",
"}  c #F9FAFE",
"|  c #F5F7FE",
"1  c #D8D9DC",
"2  c #EAECF1",
"3  c #F2F5FC",
"4  c #EBEEF5",
"5  c #F6F9FF",
"6  c #F0F3F9",
"7  c #F9FBFF",
"8  c #F3F5F9",
"9  c #FCFDFF",
"0  c #F8F9FB",
"a  c #E8E9EB",
"b  c #E9EAEB",
"c  c #ECEEEF",
"d  c #F3F6F6",
"e  c #EAECEB",
"f  c #E5E5E2",
"g  c #DDDDDA",
"h  c #F9F9F7",
"i  c #DEDEDC",
"j  c #FEFEFD",
"k  c #F6F6F5",
"l  c #F4F4F3",
"m  c #F1F1F0",
"n  c #EBEBEA",
"o  c #DFDFDE",
"p  c #DCDCDB",
"q  c #F6E14C",
"r  c #F9E552",
"s  c #FDEA64",
"t  c #FCEA6C",
"u  c #FBEC89",
"v  c #FCEE8F",
"w  c #FDEF91",
"x  c #F2D637",
"y  c #F8DE42",
"z  c #F6E158",
"A  c #F2DE5F",
"B  c #FCE567",
"C  c #EBD866",
"D  c #F6E370",
"E  c #FFEB76",
"F  c #F9E574",
"G  c #FBE97A",
"H  c #F9E779",
"I  c #FDEA81",
"J  c #FAE97F",
"K  c #FFED83",
"L  c #FAE981",
"M  c #FCEA84",
"N  c #FCEA88",
"O  c #FBEA88",
"P  c #FEEE8A",
"Q  c #FCEC8C",
"R  c #DEB90D",
"S  c #EBCC30",
"T  c #EED23F",
"U  c #EED14C",
"V  c #D4BC48",
"W  c #F2D953",
"X  c #F0D655",
"Y  c #F0D759",
"Z  c #E9D158",
"`  c #F5DC5E",
" . c #F2DA5D",
".. c #E0CA57",
"+. c #F5DD62",
"@. c #F6E06B",
"#. c #F4DE6A",
"$. c #E9D471",
"%. c #ECDB85",
"&. c #C8BA75",
"*. c #B4A974",
"=. c #DBAF01",
"-. c #DCB30A",
";. c #E1B91C",
">. c #E6C11E",
",. c #EBC422",
"'. c #E3BD24",
"). c #D7B62E",
"!. c #E6C234",
"~. c #E7C538",
"{. c #CEB032",
"]. c #EACB3E",
"^. c #D6B739",
"/. c #E9CA44",
"(. c #DEC146",
"_. c #DAC152",
":. c #C5B264",
"<. c #DBC774",
"[. c #D0C079",
"}. c #C8BF9B",
"|. c #CBC3A1",
"1. c #EBE2BC",
"2. c #C7C4B8",
"3. c #D6A800",
"4. c #C89D00",
"5. c #CBA101",
"6. c #D5A604",
"7. c #D8AB05",
"8. c #C49904",
"9. c #DAAE06",
"0. c #DCAF08",
"a. c #DBAD08",
"b. c #D8AB08",
"c. c #D5A708",
"d. c #D5AA0B",
"e. c #C39D0B",
"f. c #DFB515",
"g. c #D4AC1A",
"h. c #CDA720",
"i. c #C9AF56",
"j. c #B7A258",
"k. c #C1B37F",
"l. c #E8DBA9",
"m. c #CBC7B8",
"n. c #D5D2C7",
"o. c #D3A300",
"p. c #D19F00",
"q. c #CA9B00",
"r. c #C39400",
"s. c #C19100",
"t. c #B88C00",
"u. c #CF9D03",
"v. c #D3A405",
"w. c #D0A005",
"x. c #D1A307",
"y. c #CF9E07",
"z. c #BB9007",
"A. c #C09608",
"B. c #C4B78D",
"C. c #D0CAB6",
"D. c #CEC8B5",
"E. c #C79200",
"F. c #C69100",
"G. c #C49200",
"H. c #C49000",
"I. c #C39000",
"J. c #C08C00",
"K. c #BD8D00",
"L. c #BA8900",
"M. c #CC9901",
"N. c #CA9601",
"O. c #C79501",
"P. c #C69302",
"Q. c #C49202",
"R. c #C49103",
"S. c #C39003",
"T. c #C28E03",
"U. c #C79404",
"V. c #C49204",
"W. c #CA9805",
"X. c #C99705",
"Y. c #CD9B06",
"Z. c #C29106",
"`. c #B68A07",
" + c #B28507",
".+ c #C59818",
"++ c #B88D18",
"@+ c #B09030",
"#+ c #B69A48",
"$+ c #D6BC70",
"%+ c #D6C28B",
"&+ c #BEAF85",
"*+ c #CCC5B0",
"=+ c #C6C5C2",
"-+ c #E1E0DD",
";+ c #D1D0CD",
">+ c #C38D00",
",+ c #BE8900",
"'+ c #BC8600",
")+ c #BB8500",
"!+ c #C28D03",
"~+ c #C18D03",
"{+ c #BE8A04",
"]+ c #BB8B0E",
"^+ c #C09326",
"/+ c #C59D33",
"(+ c #CDAE5F",
"_+ c #DAC99D",
":+ c #EBE4D2",
"<+ c #F0E9D7",
"[+ c #BA8200",
"}+ c #E3D9C3",
"|+ c #ECE3CE",
"1+ c #EFE9DD",
"2+ c #EBE5D9",
"3+ c #DEDBD5",
"4+ c #EEEBE5",
"5+ c #ECE9E3",
"6+ c #D7D5D1",
"7+ c #EEEDEB",
"8+ c #EBEAE8",
"9+ c #EAE9E7",
"0+ c #E3E2E0",
"a+ c #D4D3D1",
"b+ c #D2D1CF",
"c+ c #D9D7D4",
"d+ c #F2EFEB",
"e+ c #EDE7E0",
"f+ c #F3F2F1",
"g+ c #E7E6E5",
"h+ c #DEDDDC",
"i+ c #DAD9D8",
"j+ c #CCCBCA",
"k+ c #F4F2F1",
"l+ c #E9E7E6",
"m+ c #F7F5F5",
"n+ c #EBE9E9",
"o+ c #FEFDFD",
"p+ c #F9F8F8",
"q+ c #F8F7F7",
"r+ c #F2F1F1",
"s+ c #F0EFEF",
"t+ c #EEEDED",
"u+ c #ECEBEB",
"v+ c #DDDCDC",
"w+ c #D7D6D6",
"x+ c #FFFFFF",
"y+ c #FDFDFD",
"z+ c #FBFBFB",
"A+ c #FAFAFA",
"B+ c #F7F7F7",
"C+ c #F4F4F4",
"D+ c #F3F3F3",
"E+ c #F2F2F2",
"F+ c #EDEDED",
"G+ c #E9E9E9",
"                        y+h B+k k B+A+j                         ",
"                  y+C+7+n u+% % % % G+l+n k                     ",
"              j k+9+% , ' 5+:+|+:+2+n+, ' g+g+f+                ",
"            h 8+u+, <+l.#.z r r r z A %.1.+ ) f g+A+            ",
"          k G+_ 5+%.q r E P v w w P K s q A 1., G+o q+          ",
"        k 9+; 1.W r K v Q u u u u u Q v Q t y %.n { i B+        ",
"      h 9+; l.x B O M L J J J J J J J L M N I y C 4+{ i A+      ",
"    y+8+( 1.x B L G F F G H H H H H H G H F J J y C # g+0+j     ",
"    m ^ 1+T z F @.<.[.[.$.D D D D D F #.<.[.$.F F x %./ g ^     ",
"  z+n = $.x @.@.Z }.: i+&.+.#.#.@.+...&.n.2...@.#.` S |+) p y+  ",
"  f+) :+S W ` ` ..|.( : &.X ` ` Z i.|.. 3 m._.`  .+.x $.> p s+  ",
"x+7+> %.S Y X W (.|.6 : &.U U V k.6+_ E+_ D._.W X X U S 1+b o   ",
"z+u+f+/.S U U U (.|.6 : :.^.:.D.2 ! m C+8 C.V U U U U ,.l.[ i+y+",
"k ~ <+'.].].].].^.}.( a *.B.& [ ] D+k B+8 D.^.].].]./.>.$.* i+D+",
"f+! 1.R '.~.~.~.).}.( s+7+! ~ ^ E+B+p+p+d D.{.~.~.~.!.R ..8 p F+",
"m [ l.-.-.f.;.'.g.}.| l ] ~ C+p+A+z+y+y+} D.h.'.'.;.f.=.(.l h+$ ",
"m [ l.b.9.a.a.0.5.B.| p+0 0 z+y+z+z+y+y+} *+e.0.a.a.9.=.(.C+p G+",
"m ! 1.d.7.b.b.b.4.B.3 m+] 7 9 p+p+B+p+p+< *+8.a.b.b.b.3._.- i+n ",
"l ^ <+g.6.c.c.c.8.B.3 ~ *.}.< x+y+y+z+p+8 *+A.c.c.c.c.p.<.* a+s+",
"h $ # ^.p.x.x.x.r.B.| 2 #+t.j.}+9 x+y+y+0 *+z.v.x.x.x.u.l.[ ;+B+",
"o+l+8 %+u.y.y.w.s.B.5 2 #+q.N.++k.G+x+@ 7 *+z.w.y.y.u.h.1+g+a+  ",
"  7+F+|+.+M.Y.Y.K.B.7 ) #+O.Y.q.L.@+*+} x+*+`.Y.Y.Y.N.$+* a+.   ",
"  q+0+- $+E.X.W.K.&+4 : #+G.W.X.W.F. +j.-+m.`.N.X.N..+|+c j+p+  ",
"    l+9+e+/+H.U.Q.++@+@+]+Q.U.P.U.U.O.L.@+#+z.O.P.I.%+* b+i     ",
"    p+o ~ }+.+J.Z.s.~+J.S.R.S.R.R.S.S.V.>+L.~+S.J.(+l -+j+A+    ",
"      s+3+f+l.++,+~+!+~+~+~+~+~+~+~+~+~+~+T.J.,+(+d+G+=+t+      ",
"        9+c+_ }+/+)+,+{+{+{+{+{+{+{+{+{+,+'+]+[.m l+=+0+        ",
"        @ l+c+e 4+%+^+)+[+)+'+'+'+)+[+[+]+i.}+- -+=+&           ",
"            F+6+o ) e+_+(+/+++]+++^+#+[.}+t+$ ;+=+$             ",
"              k h+a+g n ^ 4+e+:+2+e+d+# f b+=+w+p+              ",
"                  D+o a+b+w+i+g g c+b+j+j+i+f+                  ",
"                      z+m g+p w+w+i+0+^ z+                      "};
