/* XPM */
static const char * badAns_xpm[] = {
"32 32 2 1",
"   c None",
".  c #EB0F08",
"                                ",
"                                ",
"                                ",
"                                ",
"                                ",
"                                ",
"                                ",
"     ....            ....       ",
"     .....          .....       ",
"     ......        ......       ",
"      ......      ......        ",
"       ......    ......         ",
"        ......  ......          ",
"         ............           ",
"          ..........            ",
"           ........             ",
"            ......              ",
"           ........             ",
"          ..........            ",
"         ............           ",
"        ......  ......          ",
"       ......    ......         ",
"      ......      ......        ",
"     ......        ......       ",
"     .....          .....       ",
"     ....            ....       ",
"                                ",
"                                ",
"                                ",
"                                ",
"                                ",
"                                "};
