/* XPM */
static const char * blueArrow_xpm[] = {
"12 14 2 1",
"   c None",
".  c #0000FF",
"            ",
"            ",
"   .        ",
"   ..       ",
"   ...      ",
"   ....     ",
"   .....    ",
"   ......   ",
"   .....    ",
"   ....     ",
"   ...      ",
"   ..       ",
"   .        ",
"            "};
