/* XPM */
static const char * checkAllTerms_xpm[] = {
"32 32 60 1",
"   c None",
".  c #000000",
"+  c #080808",
"@  c #747674",
"#  c #7E807E",
"$  c #7C7E7C",
"%  c #858785",
"&  c #3E3F3E",
"*  c #7B7D7B",
"=  c #8B8D8B",
"-  c #636563",
";  c #282928",
">  c #7D7F7D",
",  c #404140",
"'  c #0F0F0F",
")  c #F0F0F0",
"!  c #FFFFFF",
"~  c #808080",
"{  c #009600",
"]  c #CFD1CF",
"^  c #424442",
"/  c #0F0E0F",
"(  c #848484",
"_  c #E9EDE9",
":  c #FCFFFC",
"<  c #F8FCF8",
"[  c #6F716F",
"}  c #A3A5A3",
"|  c #C7C8C7",
"1  c #353635",
"2  c #1B1B1B",
"3  c #808280",
"4  c #232323",
"5  c #3F403F",
"6  c #2D2D2D",
"7  c #E5E9E5",
"8  c #0A0A0A",
"9  c #6D6F6D",
"0  c #C3C7C3",
"a  c #121212",
"b  c #EDEDED",
"c  c #666766",
"d  c #343534",
"e  c #C7C7C7",
"f  c #EDF0ED",
"g  c #F2F5F2",
"h  c #E0E1E0",
"i  c #777977",
"j  c #BFBFBF",
"k  c #0E0E0E",
"l  c #DBDFDB",
"m  c #EDF1ED",
"n  c #F9FEF9",
"o  c #757775",
"p  c #DADEDA",
"q  c #F2F6F2",
"r  c #FBFFFB",
"s  c #E8ECE8",
"t  c #010101",
"u  c #101010",
"                                ",
"                                ",
"                                ",
"                                ",
" ............      ............ ",
" ............      ............ ",
" .+@#$$$$$%&.      .+@#$*=-;>,. ",
" .')!!!!!!!~. {    .')!!!]^/!(. ",
" .'_:<<<<<!$. {{   .+[}!|1.2:3. ",
" .'_:<<<<<!$. {{{  ...4%5.67!$. ",
" .'_:<<<<<!$. {{{{ .898..10!!$. ",
" .'_:<<<<<!$. {{{  .abc.de!<!$. ",
" .'f!:::::!#. {{   .'ghij!::!#. ",
" .klm_____no. {    .kpqrqs__no. ",
" .tk''''''u+.      .tk''''''u+. ",
" ............      ............ ",
"                                ",
"                                ",
" ............      ............ ",
" ............      ............ ",
" .+@#$$$$$%&. {    .+@#$*=-;>,. ",
" .')!!!!!!!~. {{   .')!!!]^/!(. ",
" .'_:<<<<<!$. {{{  .+[}!|1.2:3. ",
" .'_:<<<<<!$. {{{{ ...4%5.67!$. ",
" .'_:<<<<<!$. {{{  .898..10!!$. ",
" .'_:<<<<<!$. {{   .abc.de!<!$. ",
" .'f!:::::!#. {    .'ghij!::!#. ",
" .klm_____no.      .kpqrqs__no. ",
" .tk''''''u+.      .tk''''''u+. ",
" ............      ............ ",
"                                ",
"                                "};
