/* XPM */
static const char * closedVocab_xpm[] = {
"18 16 62 1",
"   c None",
".  c #2B0000",
"+  c #5D0000",
"@  c #A40000",
"#  c #FF0000",
"$  c #770000",
"%  c #000000",
"&  c #4B0000",
"*  c #9E0000",
"=  c #780000",
"-  c #030000",
";  c #120000",
">  c #D40000",
",  c #F30000",
"'  c #720000",
")  c #AC0000",
"!  c #FE0000",
"~  c #630000",
"{  c #3A0000",
"]  c #640000",
"^  c #600000",
"/  c #290000",
"(  c #5C0000",
"_  c #650000",
":  c #2A0000",
"<  c #FD0000",
"[  c #5A0000",
"}  c #590000",
"|  c #FC0000",
"1  c #FB0000",
"2  c #CC0000",
"3  c #560000",
"4  c #6C0000",
"5  c #B50000",
"6  c #820000",
"7  c #263838",
"8  c #0C1414",
"9  c #6B0000",
"0  c #E90000",
"a  c #570000",
"b  c #403838",
"c  c #405A5A",
"d  c #A5A5A5",
"e  c #3D3D3D",
"f  c #F80000",
"g  c #480101",
"h  c #341919",
"i  c #667777",
"j  c #7C8181",
"k  c #7D7C7C",
"l  c #090909",
"m  c #DE0000",
"n  c #1B1717",
"o  c #727676",
"p  c #7E8383",
"q  c #777777",
"r  c #7A0000",
"s  c #E60000",
"t  c #243939",
"u  c #A7A7A7",
"v  c #5C5C5C",
"w  c #0C1313",
"         .        ",
"       +@#$       ",
"    %&*####=      ",
"  -;>,######'     ",
" ;)!#########~    ",
"{ ]###########^   ",
"/# (###########_  ",
":## +<##########[ ",
" }|# _1########23%",
"  _## 4######5678 ",
"   ^## 9###0abcde ",
"    ~## 9fghijk l%",
"     '#m nopq  %  ",
"      rstuv  %%   ",
"       &w %%      ",
"        %%        "};
