/* XPM */
static const char * closedFolder_xpm[] = {
"15 16 9 1",
"   c None",
".  c #000000",
"+  c #5A595A",
"@  c #C5C200",
"#  c #FFFF00",
"$  c #FFFFFF",
"%  c #C5C2C5",
"&  c #A4A1A4",
"*  c #838183",
" ...           ",
".+@#..         ",
".$++@#.....    ",
".$$%++@@###.   ",
".$%$%%+@@@@+   ",
".%$%%%%++++@.  ",
".$%%%%%%%&%.@+ ",
".%%%%%%%&%&.@+ ",
".%%%%%%&%&&.@+ ",
".%%%%%&%&&&.@+ ",
"..*%%&%&&&&.@+ ",
"  ..*%&&&&&.@+ ",
"    ..&&&&&.@+ ",
"      ..&&&.@..",
"        ..&.@..",
"          .... "};
