/* XPM */
static const char * editcut_xpm[] = {
"32 32 302 2",
"   c None",
".  c #777471",
"+  c #908D8A",
"@  c #72706C",
"#  c #000000",
"$  c #767472",
"%  c #484645",
"&  c #3C3B39",
"*  c #1F1F1E",
"=  c #7E7C79",
"-  c #151514",
";  c #83827E",
">  c #666663",
",  c #4D4B4A",
"'  c #454544",
")  c #CFCECB",
"!  c #676664",
"~  c #333231",
"{  c #94928E",
"]  c #858380",
"^  c #0C0B0B",
"/  c #7C7C7C",
"(  c #E5E4E1",
"_  c #61605D",
":  c #585654",
"<  c #AFABA5",
"[  c #383735",
"}  c #383635",
"|  c #BDBDBB",
"1  c #E6E3DD",
"2  c #504F48",
"3  c #2D2B2A",
"4  c #787573",
"5  c #5A5855",
"6  c #242321",
"7  c #41413F",
"8  c #777571",
"9  c #888785",
"0  c #E0E0DC",
"a  c #D7D3C9",
"b  c #4B4A43",
"c  c #232321",
"d  c #94918F",
"e  c #BBB8B2",
"f  c #262523",
"g  c #6D6B69",
"h  c #93918F",
"i  c #494846",
"j  c #83817E",
"k  c #BDBBB9",
"l  c #D8D4CE",
"m  c #75766F",
"n  c #5A5956",
"o  c #7D7B77",
"p  c #6A6965",
"q  c #74736F",
"r  c #D1CECB",
"s  c #A2A09F",
"t  c #100F0F",
"u  c #666360",
"v  c #343231",
"w  c #A1A0A2",
"x  c #F3F2F0",
"y  c #83827A",
"z  c #2A2827",
"A  c #666362",
"B  c #A7A59F",
"C  c #191816",
"D  c #717072",
"E  c #F5F3F1",
"F  c #D7D4D0",
"G  c #474646",
"H  c #7C7B77",
"I  c #434442",
"J  c #BBBBBD",
"K  c #F9F7F3",
"L  c #7B776D",
"M  c #13110F",
"N  c #6B6867",
"O  c #73706D",
"P  c #6F6E6A",
"Q  c #676764",
"R  c #CCCCCD",
"S  c #FFFFFF",
"T  c #95918C",
"U  c #121210",
"V  c #81807C",
"W  c #B3B2B2",
"X  c #EBE7E2",
"Y  c #918E85",
"Z  c #42403C",
"`  c #85837F",
" . c #CBC7C2",
".. c #75726E",
"+. c #171615",
"@. c #8E8E8D",
"#. c #E3E3E1",
"$. c #EDEBE6",
"%. c #C0BEB5",
"&. c #6A6760",
"*. c #302F2F",
"=. c #4B4A47",
"-. c #717272",
";. c #F5F5F3",
">. c #AEACA4",
",. c #383732",
"'. c #373735",
"). c #73726E",
"!. c #5B5955",
"~. c #484744",
"{. c #E6E5E6",
"]. c #F9F8F6",
"^. c #A5A19A",
"/. c #635F5A",
"(. c #6F6C68",
"_. c #73716F",
":. c #434240",
"<. c #656565",
"[. c #F0F0EF",
"}. c #BFBEB8",
"|. c #242420",
"1. c #454645",
"2. c #ACABA9",
"3. c #D2D0CD",
"4. c #F9F8F3",
"5. c #C9C6BF",
"6. c #3B3732",
"7. c #2B2A29",
"8. c #8E8B89",
"9. c #40403E",
"0. c #B1AFAE",
"a. c #DFDCD7",
"b. c #4E4D4A",
"c. c #838485",
"d. c #F1F0F0",
"e. c #F8F4EE",
"f. c #AFACA4",
"g. c #736E67",
"h. c #34312F",
"i. c #4C4B4B",
"j. c #656360",
"k. c #747270",
"l. c #EDE9E6",
"m. c #8C8A87",
"n. c #5A5A58",
"o. c #ACABA7",
"p. c #D6D3CE",
"q. c #B5B1A9",
"r. c #3F3D37",
"s. c #454340",
"t. c #999793",
"u. c #949290",
"v. c #292827",
"w. c #BBB9B6",
"x. c #C7C5C1",
"y. c #646360",
"z. c #9D9A93",
"A. c #64615C",
"B. c #42413D",
"C. c #2F2E2C",
"D. c #6B6A69",
"E. c #5F5E5C",
"F. c #3B3A39",
"G. c #2E2D2B",
"H. c #373634",
"I. c #545251",
"J. c #080808",
"K. c #7B7B78",
"L. c #C2C1BD",
"M. c #52514F",
"N. c #31302D",
"O. c #282726",
"P. c #565553",
"Q. c #605E5C",
"R. c #161615",
"S. c #1B1919",
"T. c #1E1E1C",
"U. c #262524",
"V. c #3A3938",
"W. c #222120",
"X. c #1E1E1E",
"Y. c #72716F",
"Z. c #444342",
"`. c #0F0F0F",
" + c #5B5A58",
".+ c #1A1A19",
"++ c #3E3E3A",
"@+ c #868380",
"#+ c #BFBBB8",
"$+ c #797875",
"%+ c #131313",
"&+ c #070707",
"*+ c #0E0D0C",
"=+ c #1B1C1A",
"-+ c #1F1E1E",
";+ c #302F2E",
">+ c #353331",
",+ c #191917",
"'+ c #656462",
")+ c #343332",
"!+ c #373736",
"~+ c #C4C1BD",
"{+ c #D4D1CC",
"]+ c #ABA9A5",
"^+ c #363634",
"/+ c #3C3B3A",
"(+ c #706F6B",
"_+ c #595754",
":+ c #41413E",
"<+ c #131412",
"[+ c #0C0C0C",
"}+ c #4A4745",
"|+ c #686664",
"1+ c #807E7B",
"2+ c #242422",
"3+ c #666462",
"4+ c #E4E1DB",
"5+ c #D0CCC7",
"6+ c #5C5A58",
"7+ c #151414",
"8+ c #73716E",
"9+ c #8A8783",
"0+ c #312F2E",
"a+ c #080706",
"b+ c #242323",
"c+ c #2E2D2C",
"d+ c #555350",
"e+ c #4A4947",
"f+ c #BEBBB5",
"g+ c #D3D0CA",
"h+ c #494747",
"i+ c #292828",
"j+ c #ADAAA5",
"k+ c #464443",
"l+ c #070606",
"m+ c #232222",
"n+ c #1C1D1B",
"o+ c #6B6966",
"p+ c #3D3D3B",
"q+ c #1C1B1A",
"r+ c #96938E",
"s+ c #D4D0CB",
"t+ c #AEABA7",
"u+ c #191918",
"v+ c #4B4947",
"w+ c #333331",
"x+ c #161613",
"y+ c #5B5957",
"z+ c #ACA9A6",
"A+ c #918E8A",
"B+ c #706E6C",
"C+ c #242322",
"D+ c #4D4B49",
"E+ c #6E6D6A",
"F+ c #333332",
"G+ c #11100F",
"H+ c #403F3C",
"I+ c #837F7D",
"J+ c #0B0B0A",
"K+ c #171716",
"L+ c #62605D",
"M+ c #B4B2AE",
"N+ c #4C4A48",
"O+ c #1E1D1C",
"P+ c #7F7C79",
"Q+ c #1F1F1D",
"R+ c #060605",
"S+ c #1E1E1D",
"T+ c #4F4C4C",
"U+ c #928F8C",
"V+ c #252423",
"W+ c #8E8B88",
"X+ c #CCC8C4",
"Y+ c #777371",
"Z+ c #272624",
"`+ c #1C1C1A",
" @ c #6B6A68",
".@ c #A7A4A2",
"+@ c #444240",
"@@ c #161715",
"#@ c #7F7E7A",
"$@ c #6E6C6A",
"%@ c #0E0E0E",
"&@ c #5F5D5B",
"*@ c #5D5C59",
"=@ c #D4CFCB",
"-@ c #92908D",
";@ c #454443",
">@ c #040404",
",@ c #767370",
"'@ c #2B2929",
")@ c #313030",
"!@ c #858482",
"~@ c #71706D",
"{@ c #252624",
"]@ c #3F3D3B",
"^@ c #0C0C0B",
"/@ c #242424",
"(@ c #2A2A29",
"_@ c #353533",
":@ c #090909",
"<@ c #494945",
"                                                                ",
"                            . +                                 ",
"                          @ # $                                 ",
"                        % & * =                                 ",
"                        - ; > ,                                 ",
"                      # ' ) ! ~                   { ]           ",
"                      ^ / ( _ :                 < [ }           ",
"                      ' | 1 2 3               4 5 6 7           ",
"                    8 9 0 a b c d           e f g h i           ",
"                      j k l m n +         o p q r s t           ",
"                    u v w x y z A       B C D E F G #           ",
"                    H I J K L M N     O P Q R S T U             ",
"                      V W X Y Z `  ...+.@.#.$.%.&.*.            ",
"                      =.-.;.>.,.'.).!.~.{.].^./.(._.            ",
"                      :.<.[.}.|.# 1.2.3.4.5.6.7.8.              ",
"                        9.0.a.b.*.c.d.e.f.g.h.i.                ",
"                        j.k.l.m.n.o.p.q.r.s.t.u.                ",
"                          v.w.x.y.z.A.B.C.D.                    ",
"            E.F.G.H.I.j.7 J.K.L.M.N.O.P.                        ",
"          Q.R.S.[ T.U.V.W.# X.Y.Z.`. +                          ",
"        j..+++@+#+$+%+&+*+=+-+;+>+,+'+                          ",
"        )+!+~+{+  ]+^+# /+(+_+:+<+[+}+|+                        ",
"      1+2+3+4+    5+6+7+8+    9+0+a+&+b+c+d+                    ",
"        U.e+f+    g+h+i+      j+k+# l+!+m+n+o+                  ",
"        p+q+r+s+t+(+u+v+        w+x+y+z+A+-+c+                  ",
"        B+C+D+E+F+G+H+I+      J+K+L+M+  ~+N+O+                  ",
"        P+Q+R+S+U.T+U+        W.V+W+    X+Y+Z+v.                ",
"              `+ @.@          +@@@#@      $@%@                  ",
"                              &@&+*@=@X+-@;@>@                  ",
"                              ,@'@)@!@~@{@w+O.                  ",
"                                ]@^@/@(@_@y+                    ",
"                                    :@<@                        "};
