/* XPM */
static const char * editTerm_xpm[] = {
"32 32 156 2",
"   c None",
".  c #807078",
"+  c #686458",
"@  c #000000",
"#  c #080400",
"$  c #281810",
"%  c #A08C90",
"&  c #C01818",
"*  c #E82020",
"=  c #B81C18",
"-  c #400808",
";  c #200C08",
">  c #705858",
",  c #402010",
"'  c #B01410",
")  c #D81C20",
"!  c #F82428",
"~  c #F02420",
"{  c #A01410",
"]  c #200000",
"^  c #604848",
"/  c #080C08",
"(  c #807040",
"_  c #D88048",
":  c #F02828",
"<  c #E02020",
"[  c #B81418",
"}  c #900C08",
"|  c #100000",
"1  c #181008",
"2  c #686468",
"3  c #484838",
"4  c #E0E078",
"5  c #F8F878",
"6  c #F8D470",
"7  c #F85838",
"8  c #D01C18",
"9  c #A81010",
"0  c #800808",
"a  c #600000",
"b  c #200400",
"c  c #000400",
"d  c #D8DC78",
"e  c #F0F078",
"f  c #D0D868",
"g  c #C88448",
"h  c #B82418",
"i  c #980C08",
"j  c #700400",
"k  c #500000",
"l  c #100400",
"m  c #989098",
"n  c #504C50",
"o  c #606048",
"p  c #F0F478",
"q  c #E0E070",
"r  c #C0C860",
"s  c #A8AC50",
"t  c #908840",
"u  c #783818",
"v  c #601008",
"w  c #300400",
"x  c #E8EC78",
"y  c #E8EC70",
"z  c #D0D068",
"A  c #B0B458",
"B  c #989C48",
"C  c #808038",
"D  c #606428",
"E  c #502408",
"F  c #686868",
"G  c #383838",
"H  c #787C50",
"I  c #D8DC68",
"J  c #C0C058",
"K  c #A0A450",
"L  c #888C40",
"M  c #707030",
"N  c #585820",
"O  c #303018",
"P  c #403C38",
"Q  c #080808",
"R  c #E0E870",
"S  c #C8CC60",
"T  c #B0B050",
"U  c #909840",
"V  c #787830",
"W  c #606028",
"X  c #484C18",
"Y  c #202020",
"Z  c #909458",
"`  c #E8F078",
" . c #B8BC58",
".. c #A0A048",
"+. c #808438",
"@. c #686828",
"#. c #505420",
"$. c #303028",
"%. c #585458",
"&. c #B8B0B8",
"*. c #101410",
"=. c #909040",
"-. c #707430",
";. c #585C20",
">. c #484C20",
",. c #101010",
"'. c #A8AC58",
"). c #282820",
"!. c #787078",
"~. c #A09CA0",
"{. c #282418",
"]. c #C0C060",
"^. c #484820",
"/. c #909448",
"(. c #181810",
"_. c #908890",
":. c #888488",
"<. c #383C20",
"[. c #D8D868",
"}. c #686C28",
"|. c #404418",
"1. c #C8CC68",
"2. c #F0F878",
"3. c #101008",
"4. c #A8A0A8",
"5. c #505050",
"6. c #686850",
"7. c #383C18",
"8. c #F8FCE8",
"9. c #F8FCC0",
"0. c #505020",
"a. c #080C00",
"b. c #C0B4C0",
"c. c #F8FCF8",
"d. c #F0F0B8",
"e. c #909440",
"f. c #303418",
"g. c #202420",
"h. c #E8E8C8",
"i. c #080800",
"j. c #F8F8F0",
"k. c #A8A880",
"l. c #101408",
"m. c #484440",
"n. c #E0E0D8",
"o. c #404430",
"p. c #181C10",
"q. c #C0C0B8",
"r. c #F8F8F8",
"s. c #888C88",
"t. c #202018",
"u. c #A8ACA8",
"v. c #A0A4A0",
"w. c #282828",
"x. c #181C18",
"y. c #C0B8C0",
"                                                                ",
"                                                                ",
"                                      .                         ",
"                                  + @ # $ %                     ",
"                                . @ & * = - ; >                 ",
"                                , ' ) ! ! ~ { ] ^               ",
"                              / ( _ : ! ! < [ } | 1             ",
"                            2 3 4 5 6 7 ~ 8 9 0 a b             ",
"                            c d 5 5 e f g h i j k l m           ",
"                          n o 5 5 p q r s t u v w @             ",
"                          @ x 5 5 y z A B C D E # F             ",
"                        G H 5 5 p I J K L M N O P               ",
"                        Q e 5 5 R S T U V W X c                 ",
"                      Y Z 5 5 ` f  ...+.@.#.$.%.                ",
"                    &.*.p 5 p q r s =.-.;.>.@                   ",
"                    ,.'.5 5 x z A B C D #.).!.                  ",
"                  ~.{.5 5 p I ].K L M N ^.c                     ",
"                  / ].5 5 R S T /.V W #.(._.                    ",
"                :.<.5 5 e [. ...+.}.#.|./                       ",
"                / 1.5 2.q r s =.-.;.#.3.4.                      ",
"              5.6.5 5 y z A B C D #.7.*.                        ",
"              @ 8.9.p I J K L M N 0.a.b.                        ",
"              @ c.c.d.S T e.V W #.f.g.                          ",
"              @ c.c.c.h.K +.@.#.X i.                            ",
"              @ c.c.c.c.j.k.W #.l.m.                            ",
"              @ c.c.c.c.c.c.n.o.p.                              ",
"              @ q.c.c.c.r.s.*.G                                 ",
"              @ t.u.c.v.*.w.                                    ",
"              @ @ x.g.Y y.                                      ",
"            @ @ @ @ @ @ @ @ @ @ @ @ F   @ @ F   @ @ F           ",
"                                                                ",
"                                                                "};
