/* XPM */
static const char * export_xpm[] = {
"32 32 12 1",
"   c None",
".  c #000000",
"+  c #F8A858",
"@  c #808080",
"#  c #F8DCA8",
"$  c #009400",
"%  c #A0A0A0",
"&  c #303030",
"*  c #585858",
"=  c #C0C0C0",
"-  c #D8DCD8",
";  c #F8FCF8",
"                                ",
"                                ",
"                                ",
"                                ",
"                                ",
"                                ",
"                                ",
"                                ",
"                                ",
"      ...                       ",
"      .+@..                     ",
"      .+#+@....         $       ",
"  ... .+######+.        $$      ",
"  .%%&*+++#####+.       $$$     ",
"  .@%%%@++++###+@.   $$$$$$$    ",
"   &%%%%@@++++#+@.   $$$$$$$$   ",
"   .@%%==%@@++++@.   $$$$$$$$$  ",
"    &%=%====@@++@.   $$$$$$$$   ",
"    .@====-=-%++@.   $$$$$$$    ",
"     &@-===-;#*+@.      $$$     ",
"      .&%--;;;%+@.      $$      ",
"        .&=;;;#*@.      $       ",
"          .&=;;@@.              ",
"            .&=;@.              ",
"              .&&.              ",
"                                ",
"                                ",
"                                ",
"                                ",
"                                ",
"                                ",
"                                "};
