/* XPM */
static const char * eye_xpm[] = {
"32 32 5 1",
"   c None",
".  c #000323",
"+  c #FFFFFF",
"@  c #1604FA",
"#  c #1694E6",
"                                ",
"                                ",
"                                ",
"                                ",
"                                ",
"                                ",
"                                ",
"                                ",
"              ....              ",
"          ............          ",
"        ..... ..........        ",
"       ... +++@@@@#.  ...       ",
"      .. +++#@@..@@#. +...      ",
"     .. ++  @@+...@#. ++ ..     ",
"    ...+++.@@.  ...@#.+++...    ",
"    .. +++.@@......@#.+++ ..    ",
"    ...+++..@......@#.+++...    ",
"     ...++ .@@....@@. ++...     ",
"      ...  ..@@@@@@..  ...      ",
"       .... ..@@@@.. ....       ",
"         ..............         ",
"           ..........           ",
"                                ",
"                                ",
"                                ",
"                                ",
"                                ",
"                                ",
"                                ",
"                                ",
"                                ",
"                                "};
