/* XPM */
static const char * flag_de_xpm[] = {
"40 28 9 1",
"   c None",
".  c #000000",
"+  c #821409",
"@  c #E22210",
"#  c #DE2110",
"$  c #D70013",
"%  c #FFF900",
"&  c #FFCE00",
"*  c #FFCF00",
"                                        ",
"                                        ",
"                                        ",
"                                        ",
"    ................................    ",
"    ................................    ",
"    ................................    ",
"    ................................    ",
"    ................................    ",
"    ................................    ",
"    .++++++++++++++++++++++++++++++.    ",
"    .@@@@@@@@@@@@@@@@@@@@@@@@@@@@@@.    ",
"    .##############################.    ",
"    .##############################.    ",
"    .##############################.    ",
"    .##############################.    ",
"    .$$$$$$$$$$$$$$$$$$$$$$$$$$$$$$.    ",
"    .%%%%%%%%%%%%%%%%%%%%%%%%%%%%%%.    ",
"    .&&&&&&&&&&&&&&&&&&&&&&&&&&&&&*.    ",
"    .&&&&&&&&&&&&&&&&&&&&&&&&&&&&&*.    ",
"    .&&&&&&&&&&&&&&&&&&&&&&&&&&&&&*.    ",
"    .&&&&&&&&&&&&&&&&&&&&&&&&&&&&&*.    ",
"    .******************************.    ",
"    ................................    ",
"                                        ",
"                                        ",
"                                        ",
"                                        "};
