/* XPM */
static const char * flag_ja_xpm[] = {
"40 28 13 1",
"   c None",
".  c #000000",
"+  c #FFFFFF",
"@  c #FFF1F1",
"#  c #FF9A9A",
"$  c #FF4F4F",
"%  c #FF1717",
"&  c #FFEBEB",
"*  c #FF6C6C",
"=  c #FF0000",
"-  c #FF8D8D",
";  c #FF3D3D",
">  c #FF0808",
"                                        ",
"                                        ",
"                                        ",
"                                        ",
"    ................................    ",
"    .++++++++++++++++++++++++++++++.    ",
"    .++++++++++++++++++++++++++++++.    ",
"    .++++++++++++++++++++++++++++++.    ",
"    .++++++++++++++++++++++++++++++.    ",
"    .++++++++++++++++++++++++++++++.    ",
"    .+++++++++++@#$%%$#@+++++++++++.    ",
"    .++++++++++&*======*&++++++++++.    ",
"    .++++++++++-========-++++++++++.    ",
"    .++++++++++;========;++++++++++.    ",
"    .++++++++++>========>++++++++++.    ",
"    .++++++++++;========;++++++++++.    ",
"    .++++++++++-========-++++++++++.    ",
"    .++++++++++&*======*&++++++++++.    ",
"    .+++++++++++@#$%%$#@+++++++++++.    ",
"    .++++++++++++++++++++++++++++++.    ",
"    .++++++++++++++++++++++++++++++.    ",
"    .++++++++++++++++++++++++++++++.    ",
"    .++++++++++++++++++++++++++++++.    ",
"    ................................    ",
"                                        ",
"                                        ",
"                                        ",
"                                        "};
