/* XPM */
static const char * flag_zh_xpm[] = {
"40 28 46 1",
"   c None",
".  c #000000",
"+  c #FF0000",
"@  c #FF0400",
"#  c #FF6D00",
"$  c #FF1200",
"%  c #FF4500",
"&  c #FF0800",
"*  c #FF9900",
"=  c #FF2C00",
"-  c #FF0100",
";  c #FF0200",
">  c #FF2100",
",  c #FFC900",
"'  c #FF0300",
")  c #FF4400",
"!  c #FF2800",
"~  c #FF3100",
"{  c #FFA800",
"]  c #FFCD00",
"^  c #FFFE00",
"/  c #FFB600",
"(  c #FF9100",
"_  c #FF1000",
":  c #FF0600",
"<  c #FF9400",
"[  c #FF4800",
"}  c #FFF100",
"|  c #FFFF00",
"1  c #FFBF00",
"2  c #FF1300",
"3  c #FF0900",
"4  c #FF1F00",
"5  c #FFE500",
"6  c #FFA600",
"7  c #FFC400",
"8  c #FF3700",
"9  c #FF0E00",
"0  c #FF3B00",
"a  c #FF2600",
"b  c #FF4F00",
"c  c #FFA400",
"d  c #FF5800",
"e  c #FF0C00",
"f  c #FFC500",
"g  c #FF1E00",
"                                        ",
"                                        ",
"                                        ",
"                                        ",
"    ................................    ",
"    .++++++++@#$+++++++++++++++++++.    ",
"    .++++%+++&*=+++++++++++++++++++.    ",
"    .+-;>,';-+'+)!+++++++++++++++++.    ",
"    .+~{]^/(_++:<[+++++++++++++++++.    ",
"    .++~}|12++++3++++++++++++++++++.    ",
"    .++4567-+++;89+++++++++++++++++.    ",
"    .++0a-b$+++@cd+++++++++++++++++.    ",
"    .++++++++'!:e3+++++++++++++++++.    ",
"    .++++++++:f~+++++++++++++++++++.    ",
"    .++++++++'g-+++++++++++++++++++.    ",
"    .++++++++++++++++++++++++++++++.    ",
"    .++++++++++++++++++++++++++++++.    ",
"    .++++++++++++++++++++++++++++++.    ",
"    .++++++++++++++++++++++++++++++.    ",
"    .++++++++++++++++++++++++++++++.    ",
"    .++++++++++++++++++++++++++++++.    ",
"    .++++++++++++++++++++++++++++++.    ",
"    .++++++++++++++++++++++++++++++.    ",
"    .++++++++++++++++++++++++++++++.    ",
"    ................................    ",
"                                        ",
"                                        ",
"                                        "};
