/* XPM */
static const char * flag_en_xpm[] = {
"40 28 5 1",
"   c None",
".  c #000000",
"+  c #FFFFFF",
"@  c #0000FF",
"#  c #FF0000",
"                                        ",
"                                        ",
"                                        ",
"                                        ",
"     ................................   ",
"     .+++@@@@@@@@@+####+@@@@@@@@@+#+.   ",
"     .#++++@@@@@@@+####+@@@@@@@+##++.   ",
"     .+##++++@@@@@+####+@@@@@++#++++.   ",
"     .@++##++++@@@+####+@@@++##++++@.   ",
"     .@@@++##++++@+####+@++##++++@@@.   ",
"     .@@@@@++#+++++####+++#++++@@@@@.   ",
"     .+++++++++++++####+++++++++++++.   ",
"     .##############################.   ",
"     .##############################.   ",
"     .##############################.   ",
"     .##############################.   ",
"     .+++++++++++++####+++++++++++++.   ",
"     .@@@@@++++#+++####+++++#++@@@@@.   ",
"     .@@@++++##++@+####+@++++##++@@@.   ",
"     .@++++##++@@@+####+@@@++++##++@.   ",
"     .++++#++@@@@@+####+@@@@@++++##+.   ",
"     .++##+@@@@@@@+####+@@@@@@@++++#.   ",
"     .+#+@@@@@@@@@+####+@@@@@@@@@+++.   ",
"     ................................   ",
"                                        ",
"                                        ",
"                                        ",
"                                        "};
