/* XPM */
static const char * flag_fr_xpm[] = {
"40 28 5 1",
"   c None",
".  c #000000",
"+  c #0000FF",
"@  c #FFFFFF",
"#  c #FF0000",
"                                        ",
"                                        ",
"                                        ",
"                                        ",
"    ................................    ",
"    .++++++++++@@@@@@@@@@##########.    ",
"    .++++++++++@@@@@@@@@@##########.    ",
"    .++++++++++@@@@@@@@@@##########.    ",
"    .++++++++++@@@@@@@@@@##########.    ",
"    .++++++++++@@@@@@@@@@##########.    ",
"    .++++++++++@@@@@@@@@@##########.    ",
"    .++++++++++@@@@@@@@@@##########.    ",
"    .++++++++++@@@@@@@@@@##########.    ",
"    .++++++++++@@@@@@@@@@##########.    ",
"    .++++++++++@@@@@@@@@@##########.    ",
"    .++++++++++@@@@@@@@@@##########.    ",
"    .++++++++++@@@@@@@@@@##########.    ",
"    .++++++++++@@@@@@@@@@##########.    ",
"    .++++++++++@@@@@@@@@@##########.    ",
"    .++++++++++@@@@@@@@@@##########.    ",
"    .++++++++++@@@@@@@@@@##########.    ",
"    .++++++++++@@@@@@@@@@##########.    ",
"    .++++++++++@@@@@@@@@@##########.    ",
"    ................................    ",
"                                        ",
"                                        ",
"                                        ",
"                                        "};
