/* XPM */
static const char * forward_xpm[] = {
"32 32 256 2",
"   c None",
".  c #E6E3E4",
"+  c #F5F2F5",
"@  c #F6F4F6",
"#  c #F3F1F3",
"$  c #EDEBED",
"%  c #EEEDEE",
"&  c #EAE8EB",
"*  c #F1EFF3",
"=  c #FAF9FB",
"-  c #E9E8EA",
";  c #EEECF2",
">  c #F4F3FC",
",  c #F1F1F9",
"'  c #EDEDF4",
")  c #F5F5FA",
"!  c #FDFDFF",
"~  c #F9F9FB",
"{  c #F4F4F6",
"]  c #EBEBED",
"^  c #DFDFE1",
"/  c #EEEEEF",
"(  c #EDEDEE",
"_  c #E9EAF2",
":  c #E5E7F3",
"<  c #F3F4F9",
"[  c #F3F5FE",
"}  c #F1F3FC",
"|  c #EDEEF2",
"1  c #E6EAF6",
"2  c #EFF1F7",
"3  c #F3F4F7",
"4  c #F2F3F6",
"5  c #F0F1F4",
"6  c #ECEDF0",
"7  c #F5F8FF",
"8  c #EBEEF5",
"9  c #FAFBFD",
"0  c #F7F9FC",
"a  c #F7FBFF",
"b  c #FDFEFF",
"c  c #EEEFF0",
"d  c #EDEEEF",
"e  c #EEF0F1",
"f  c #F7F8F8",
"g  c #E9EBE8",
"h  c #F5F5F3",
"i  c #EDEDEB",
"j  c #EBEBE9",
"k  c #E5E5E3",
"l  c #D9D9D7",
"m  c #FFFFFE",
"n  c #F3F3F2",
"o  c #EDEDEC",
"p  c #E7E7E6",
"q  c #F6E148",
"r  c #F7E351",
"s  c #FAE557",
"t  c #F3E058",
"u  c #F3DF58",
"v  c #FAE768",
"w  c #F2D635",
"x  c #F2D949",
"y  c #F7DD50",
"z  c #FCE75E",
"A  c #FEE862",
"B  c #FAE467",
"C  c #F5DF66",
"D  c #EBD762",
"E  c #D5C259",
"F  c #F5E06A",
"G  c #F8E36F",
"H  c #F2DF6E",
"I  c #FAE878",
"J  c #F9E677",
"K  c #F6E476",
"L  c #FBEA7E",
"M  c #F9E87D",
"N  c #FAE97E",
"O  c #FFED82",
"P  c #ECDC78",
"Q  c #FCEA81",
"R  c #FBE981",
"S  c #C3B568",
"T  c #FDEB89",
"U  c #D3C574",
"V  c #FDEC8D",
"W  c #FEEE93",
"X  c #EADFA1",
"Y  c #EACC38",
"Z  c #C8AE34",
"`  c #EDD14A",
" . c #CFB745",
".. c #E5CD4F",
"+. c #F2D95B",
"@. c #ECD359",
"#. c #F4DA5D",
"$. c #EED65D",
"%. c #CBB650",
"&. c #F7E067",
"*. c #E5CF68",
"=. c #FEE97F",
"-. c #FDEA85",
";. c #FDEB8B",
">. c #C9BD86",
",. c #EBDFA1",
"'. c #C8BF91",
"). c #EAE0B2",
"!. c #DCB209",
"~. c #D3AC10",
"{. c #DAB41A",
"]. c #EAC728",
"^. c #DBB727",
"/. c #C5A523",
"(. c #E5C02D",
"_. c #DEBC31",
":. c #E6C234",
"<. c #E3C33B",
"[. c #E8C93E",
"}. c #E9CA40",
"|. c #CDB23C",
"1. c #ECCE47",
"2. c #E5C845",
"3. c #F1D452",
"4. c #EDDA87",
"5. c #C3B579",
"6. c #C7BC8B",
"7. c #D6D4CC",
"8. c #E2E1DD",
"9. c #D1A400",
"0. c #CCA100",
"a. c #CA9E00",
"b. c #C79A00",
"c. c #D7A901",
"d. c #D9AC03",
"e. c #D5A604",
"f. c #D9AD06",
"g. c #D9AD08",
"h. c #D7AA08",
"i. c #D4A608",
"j. c #BE9A11",
"k. c #BA9411",
"l. c #E0B717",
"m. c #E8C335",
"n. c #D6B94C",
"o. c #C0B074",
"p. c #C9C1A2",
"q. c #EBE3C5",
"r. c #E3E0D5",
"s. c #D3A300",
"t. c #C69500",
"u. c #CE9E01",
"v. c #D2A306",
"w. c #CE9D06",
"x. c #D0A207",
"y. c #B68E10",
"z. c #B28B10",
"A. c #B5901B",
"B. c #B49C50",
"C. c #BBA768",
"D. c #BEAC75",
"E. c #C48F00",
"F. c #C28D00",
"G. c #C18F00",
"H. c #C19000",
"I. c #C18D00",
"J. c #BD8D00",
"K. c #BC8A00",
"L. c #C99501",
"M. c #C38E01",
"N. c #C69202",
"O. c #B18502",
"P. c #C38F03",
"Q. c #C99604",
"R. c #C69304",
"S. c #C59304",
"T. c #C49004",
"U. c #C39004",
"V. c #CB9905",
"W. c #CD9A06",
"X. c #D09E08",
"Y. c #BB8D09",
"Z. c #B38709",
"`. c #C7960D",
" + c #CE9E0E",
".+ c #AF860D",
"++ c #B08F30",
"@+ c #D3B252",
"#+ c #B8A05E",
"$+ c #DCC583",
"%+ c #DBD8D0",
"&+ c #D9D6CE",
"*+ c #C08A00",
"=+ c #BE8A00",
"-+ c #BE8800",
";+ c #BD8800",
">+ c #BB8500",
",+ c #BE8903",
"'+ c #BD8903",
")+ c #C08C04",
"!+ c #BE8904",
"~+ c #C38F05",
"{+ c #C48F06",
"]+ c #BD901A",
"^+ c #C59E3F",
"/+ c #CDAF60",
"(+ c #CFB26D",
"_+ c #D7BF80",
":+ c #D6CAAB",
"<+ c #ECE7DA",
"[+ c #B98200",
"}+ c #C9A551",
"|+ c #D6C191",
"1+ c #E8DDC6",
"2+ c #F1EEE8",
"3+ c #CECCC8",
"4+ c #ECEBE9",
"5+ c #DCDBD9",
"6+ c #D2D1CF",
"7+ c #D0CFCD",
"8+ c #C8C7C5",
"9+ c #ECE4D7",
"0+ c #F1EADF",
"a+ c #F3ECE2",
"b+ c #E8E6E3",
"c+ c #ECE9E5",
"d+ c #DFDCD9",
"e+ c #E5E3E1",
"f+ c #FAF9F8",
"g+ c #F9F8F7",
"h+ c #F8F7F6",
"i+ c #F4F3F2",
"j+ c #F0EFEE",
"k+ c #EAE9E8",
"l+ c #E3E2E1",
"m+ c #E0DFDE",
"n+ c #C9C8C7",
"o+ c #F3F1F0",
"p+ c #DCDAD9",
"q+ c #D5D3D2",
"r+ c #C5C3C2",
"s+ c #E0DDDC",
"t+ c #F3EFEE",
"u+ c #F6F5F5",
"v+ c #F1F0F0",
"w+ c #EBEAEA",
"x+ c #FDFDFD",
"y+ c #FBFBFB",
"z+ c #FAFAFA",
"A+ c #F9F9F9",
"B+ c #F7F7F7",
"C+ c #F6F6F6",
"D+ c #F5F5F5",
"E+ c #F2F2F2",
"F+ c #E8E8E8",
"G+ c #DDDDDD",
"                      m f+u+o+j+j+j+i+h+x+                      ",
"                  y+v+4+w+] 6 6 6 ( w+F+p 4+C+                  ",
"              x+j+k+( ' c+q.).X X ).q.c+; $ k p g+              ",
"            f k+$ ' q.4.u s s z z s r u P q.; w+8./             ",
"          h k+2 <+P q A O W W W W W W O A q P 9+5 l+k+          ",
"        u+k+, ).x s -.V ;.T T T T T T T V -.s x )., l+p         ",
"      z+k+, ).w v -.=.R N N N N N N R L L Q -.v w )., m+i       ",
"    b 4+2 q.w B M K H K I J J J J J J J H H J M B w q., 5+C+    ",
"    n i 2+` y K G *.'.U D G G G G G F U '.'.U F K y ` 2+& m+m   ",
"  ! j > 4.w C C C E 6+5+6.E +.&.C C $.6.: 1 '.@.C F w 4.> 5+E+  ",
"  u+% a+Y 3.#.+.+.E 7.< 1 :+S ..+.#...>._ 8 '...+.$.x Y 0+F+8.  ",
"  j+} ,.].3.3.3.3.n.&+5 E+2 ^ '.%.1.1.>.' 2 '.2.3.3.3.].X < l x+",
"x+i ) *.].` 1.1.1. .&+{ D+E+4 2 6+o.Z 5.' , 6.<.` 1.` ].*.) G+f ",
"z+o o+<.(.}.[.[.[.|.&+{ B+f n j+3 _ p.p.( 2 >._.}.[.}.].<.o+p A+",
"g+/ a+l.l.(.:.:.:.Z &+) A+A+C+n j+/ < 4 j+2 >.^.m.:.(.l.^.a+( z+",
"h+/ 0+{.!.!.l.l.l./.%+9 x+x+y+y+z+D+E+E+D+[ 5.~.l.l.!.d.{.0+5 y+",
"h+( 0+{.d.g.f.f.d.j.&+~ y+y+A+z+y+y+~ = f [ o.0.f.g.g.f.{.0+c y+",
"g+o 2+^.c.h.h.h.d.j.7.< f A+A+A+y+b 5 8.D+} o.a.h.h.h.c.^.2+F+z+",
"y+k+# n.9.i.i.i.e.k.7.) z+x+x+m b r.B.C.< } o.b.i.i.i.s.n.h m+B+",
"m k+) $+u.x.x.x.v.k.&+~ x+x+b ; 6.A.J.C.} [ D.t.v.x.x.u.$+0 q+f ",
"  o | q. +u.w.w.w.y.%+! m a :+B.K.u.t.C.< 7 D.H.X.w.w. +1+| 7+x+",
"  C+k # @+L.V.V.V.z.%+m b+C.Z.t.W.W.H.C.7 a D.I.W.V.L.@+@ l p+  ",
"  b k % 1+`.Q.Q.L.z.3+p.++K.L.Q.Q.Q.G.B.%+l #+I.Q.L.`.1+2 n+n   ",
"    h 8.4 _+I.N.R.Y.++O.M.t.R.S.S.S.R.Y..+.+Y.S.N.F._+f q+l     ",
"    m b+e+t+/+*+M.P.I.T.{+P.~+~+~+~+~+T.P.P.U.H.=+/+o+e+8+f     ",
"      y+s+b+2+/+;+*+)+)+)+)+)+)+)+)+)+)+)+)+*+-+/+t+g r+w+      ",
"        h+5+k * $+]+>+-+*+!+'+,+,+,+!+,+;+>+]+|+# p r+l+        ",
"          f p+d+2 1+(+]+[+[+[+[+[+[+[+[+]+(+1+{ d+r+.           ",
"            z+m+q+. * 9+:+(+}+^+^+}+(+:+9+# F+3+n+(             ",
"                % l q+d+k+c v+i 2+v+5 c+d+3+n+G+y+              ",
"                  b j+s+q+6+7+6+6+7+3+3+q+k f                   ",
"                        x+D+( j F+w+v+A+                        "};
