/* XPM */
static const char * glossaryManager_xpm[] = {
"32 32 5 1",
"   c None",
".  c #808080",
"+  c #FFFFFF",
"@  c #000000",
"#  c #FFFF00",
"                                ",
"  ............................  ",
"  .++++++++++++++++++++++++++.  ",
"  .++++++++++++++++++++++++++.  ",
"  .++++++++++++++++++++++++++.  ",
"  .+++@@@@@@@@@@+++++++++++++.  ",
"  .+++@########@+++++++++++++.  ",
"  .+++@########@+++++++++++++.  ",
"  .+++@########@+++++++++++++.  ",
"  .+++@########@+++++++++++++.  ",
"  .+++@@@@@@@@@@+++++++++++++.  ",
"  .+++++++@++++++++++++++++++.  ",
"  .+++++++@++++++++++++++++++.  ",
"  .+++++++@+++++++@@@@@@@@+++.  ",
"  .+++++++@+++++++@######@+++.  ",
"  .+++++++@@@@@@@@@######@+++.  ",
"  .+++++++@+++++++@######@+++.  ",
"  .+++++++@+++++++@######@+++.  ",
"  .+++++++@+++++++@@@@@@@@+++.  ",
"  .+++++++@++++++++++++++++++.  ",
"  .+++++++@++++++++++++++++++.  ",
"  .+++++++@+++++++@@@@@@@@+++.  ",
"  .+++++++@+++++++@######@+++.  ",
"  .+++++++@@@@@@@@@######@+++.  ",
"  .+++++++++++++++@######@+++.  ",
"  .+++++++++++++++@######@+++.  ",
"  .+++++++++++++++@@@@@@@@+++.  ",
"  .++++++++++++++++++++++++++.  ",
"  .++++++++++++++++++++++++++.  ",
"  .++++++++++++++++++++++++++.  ",
"  ............................  ",
"                                "};
