/* XPM */
static const char * goodAns_xpm[] = {
"32 32 2 1",
"   c None",
".  c #008D18",
"                                ",
"                                ",
"                                ",
"                                ",
"                                ",
"              ....              ",
"           ..........           ",
"         ......  .....          ",
"        ....        ....        ",
"       ...           ...        ",
"       ...            ...       ",
"      ...              ...      ",
"      ..                ..      ",
"     ...                ..      ",
"     ...                ...     ",
"     ..                 ...     ",
"     ..                 ...     ",
"     ...                ...     ",
"     ...                ..      ",
"      ..                ..      ",
"      ...              ...      ",
"      ...             ...       ",
"       ...            ...       ",
"        ...         ....        ",
"         .....    .....         ",
"          ...........           ",
"             ......             ",
"                                ",
"                                ",
"                                ",
"                                ",
"                                "};
