/* XPM */
static const char * goVocab_xpm[] = {
"32 32 113 2",
"   c None",
".  c #380000",
"+  c #000000",
"@  c #620000",
"#  c #B90000",
"$  c #AE0000",
"%  c #EA0000",
"&  c #FF0000",
"*  c #B80000",
"=  c #480000",
"-  c #D90000",
";  c #EE0000",
">  c #FB0000",
",  c #F80000",
"'  c #D50000",
")  c #230000",
"!  c #3E0000",
"~  c #A70000",
"{  c #CF0000",
"]  c #FA0000",
"^  c #B50000",
"/  c #E50000",
"(  c #F70000",
"_  c #FD0000",
":  c #D00000",
"<  c #210000",
"[  c #4B0000",
"}  c #B30000",
"|  c #FE0000",
"1  c #F10000",
"2  c #BD0000",
"3  c #010000",
"4  c #D10000",
"5  c #3A0000",
"6  c #710000",
"7  c #A80000",
"8  c #EF0000",
"9  c #C80000",
"0  c #390000",
"a  c #D60000",
"b  c #F60000",
"c  c #330000",
"d  c #AF0000",
"e  c #310000",
"f  c #C60000",
"g  c #320000",
"h  c #BA0000",
"i  c #D70000",
"j  c #860000",
"k  c #F40000",
"l  c #B60000",
"m  c #ED0000",
"n  c #690000",
"o  c #D20000",
"p  c #C90000",
"q  c #FC0000",
"r  c #830000",
"s  c #B40000",
"t  c #F90000",
"u  c #800000",
"v  c #E90000",
"w  c #142525",
"x  c #0D1818",
"y  c #B20000",
"z  c #AD0000",
"A  c #818989",
"B  c #818787",
"C  c #444747",
"D  c #2F3131",
"E  c #870000",
"F  c #C70000",
"G  c #F00000",
"H  c #DE0000",
"I  c #4A6262",
"J  c #7B7C7C",
"K  c #A3ADAD",
"L  c #9C9797",
"M  c #3D3B3B",
"N  c #1F1F1F",
"O  c #707E7E",
"P  c #797E7E",
"Q  c #7C7C7C",
"R  c #0B0B0B",
"S  c #070707",
"T  c #500000",
"U  c #BE0000",
"V  c #F30000",
"W  c #596060",
"X  c #6D7A7A",
"Y  c #7C8A8A",
"Z  c #5C0000",
"`  c #D30000",
" . c #E40000",
".. c #7A8080",
"+. c #7F8383",
"@. c #797979",
"#. c #727171",
"$. c #EB0000",
"%. c #232F2F",
"&. c #757D7D",
"*. c #707575",
"=. c #6E7272",
"-. c #630000",
";. c #CA0000",
">. c #5C7676",
",. c #B6B6B6",
"'. c #6F6E6E",
"). c #414141",
"!. c #460808",
"~. c #141919",
"{. c #010101",
"]. c #3F0000",
"^. c #080A0A",
"                                                                ",
"                                                                ",
"                                                                ",
"                                . +                             ",
"                            @ + + # +                           ",
"                          + + $ % & * +                         ",
"                    = + + - % ; > & , ' +                       ",
"              ) ! + + ~ { & & & & & & ] ^ +                     ",
"            + + + / ; ( _ & & & & & & & & : +                   ",
"      < [ + + } ( & & & & & & & & & | & & 1 2 +                 ",
"    3 + + 4 & & & & & & & & & & & & & & & & & 2 +               ",
"  5 * 6 + 7 & & & & & & & & & & & & & & & & & 8 9 +             ",
"  0 & & 6 + a b & & & & & & & & & & & & & & & & & & +           ",
"  c & & & 6 + d & & & & & & & & & & & & & & & & & ( & +         ",
"  e & & & & 6 + f ; & & & & & & & & & & & & & | & & & & +       ",
"  g & & & & & 6 + h & & & & & & & & & & & & & & & & & & i +     ",
"  + j * k & & & 6 + l m & & | & & & & & & & & & & & & & & & +   ",
"    + n o & & & & 6 + p & & & & & & & & & & & | q | b & & & ~ + ",
"      + r s & & & & 6 + $ t & & | & & & & & & , & & & & & + +   ",
"        + u a ( & & & 6 + 4 b & & & & & & t v & & & & + + w x   ",
"          + 6 y & & & & 6 + z & & & & & & & & & & + + A B C D   ",
"            + E 9 8 & & & 6 + F G & H & & & & + + I J K L M N   ",
"              + + 2 & & & & 6 + 2 _ & & & + + O P J Q     R S + ",
"                T + U V & & & 6 + & & + + W X Y         + + +   ",
"                  Z + ` q  .& * 6 + + ..B +.@.#.      + +       ",
"                      + ^ $.& & %.&.*.=.        + + +           ",
"                      -.+ ;.& %.>.,.'.).      + + +             ",
"                          + !.~.    N   {.+ +                   ",
"                          ].+ ^.+     + +                       ",
"                              + + + +                           ",
"                                                                ",
"                                                                "};
