/* XPM */
static const char * gradeAnswer1_xpm[] = {
"32 32 3 1",
"   c None",
".  c #EB0F08",
"+  c #000000",
"                                ",
"                                ",
"                                ",
"                                ",
"                                ",
"                                ",
"      ....            ....      ",
"      .....          .....      ",
"      ......        ......      ",
"       ......      ......       ",
"        ......    ......        ",
"         ...... ++.....         ",
"          .....+++....          ",
"           ...++++...           ",
"            .++.++..            ",
"             +..++.             ",
"            ....++..            ",
"           .....++...           ",
"          ......++....          ",
"         ...... ++.....         ",
"        ......  ++......        ",
"       ......   ++ ......       ",
"      ......        ......      ",
"      .....          .....      ",
"      ....            ....      ",
"                                ",
"                                ",
"                                ",
"                                ",
"                                ",
"                                ",
"                                "};
