/* XPM */
static const char * gradeAnswer2_xpm[] = {
"32 32 3 1",
"   c None",
".  c #EB3232",
"+  c #000000",
"                                ",
"                                ",
"                                ",
"                                ",
"                                ",
"                                ",
"      ....            ....      ",
"      .....          .....      ",
"      ......        ......      ",
"       ......      ......       ",
"        ......    ......        ",
"         ......++++....         ",
"          ....++++++..          ",
"           ..++...++.           ",
"            .++...++            ",
"             .....++            ",
"            .....++.            ",
"           .....++...           ",
"          .....++.....          ",
"         .....++ ......         ",
"        .....+++++++....        ",
"       ......+++++++.....       ",
"      ......        ......      ",
"      .....          .....      ",
"      ....            ....      ",
"                                ",
"                                ",
"                                ",
"                                ",
"                                ",
"                                ",
"                                "};
