/* XPM */
static const char * gradeAnswer4_xpm[] = {
"32 32 3 1",
"   c None",
".  c #34BC4B",
"+  c #000000",
"                                ",
"                                ",
"                                ",
"                                ",
"                                ",
"              ....              ",
"           ..........           ",
"         ......  .....          ",
"        ....        ....        ",
"       ...           ...        ",
"       ...            ...       ",
"      ...       ++     ...      ",
"      ..       +++      ..      ",
"     ...       +++      ..      ",
"     ...      ++++      ...     ",
"     ..       + ++      ...     ",
"     ..      ++ ++      ...     ",
"     ...    ++  ++      ...     ",
"     ...    +++++++     ..      ",
"      ..    +++++++     ..      ",
"      ...       ++     ...      ",
"      ...       ++    ...       ",
"       ...            ...       ",
"        ...         ....        ",
"         .....    .....         ",
"          ...........           ",
"             ......             ",
"                                ",
"                                ",
"                                ",
"                                ",
"                                "};
