/* XPM */
static const char * gradeAnswer3_xpm[] = {
"32 32 3 1",
"   c None",
".  c #F96161",
"+  c #000000",
"                                ",
"                                ",
"                                ",
"                                ",
"                                ",
"                                ",
"      ....            ....      ",
"      .....          .....      ",
"      ......        ......      ",
"       ......      ......       ",
"        ......    ......        ",
"         ....+++++.....         ",
"          ..+++++++...          ",
"           .++...++..           ",
"            .....++.            ",
"             ..+++.             ",
"            ...+++..            ",
"           ......++..           ",
"          ..++...++...          ",
"         ...+++  ++....         ",
"        .....+++++......        ",
"       ...... +++  ......       ",
"      ......        ......      ",
"      .....          .....      ",
"      ....            ....      ",
"                                ",
"                                ",
"                                ",
"                                ",
"                                ",
"                                ",
"                                "};
