/* XPM */
static const char * gradeAnswer5_xpm[] = {
"32 32 3 1",
"   c None",
".  c #1BA632",
"+  c #000000",
"                                ",
"                                ",
"                                ",
"                                ",
"                                ",
"              ....              ",
"           ..........           ",
"         ......  .....          ",
"        ....        ....        ",
"       ...           ...        ",
"       ...            ...       ",
"      ...    ++++++    ...      ",
"      ..     ++++++     ..      ",
"     ...     ++         ..      ",
"     ...    +++++       ...     ",
"     ..     ++++++      ...     ",
"     ..     ++   ++     ...     ",
"     ...         ++     ...     ",
"     ...    ++   ++     ..      ",
"      ..    +++  ++     ..      ",
"      ...    +++++     ...      ",
"      ...     +++     ...       ",
"       ...            ...       ",
"        ...         ....        ",
"         .....    .....         ",
"          ...........           ",
"             ......             ",
"                                ",
"                                ",
"                                ",
"                                ",
"                                "};
