/* XPM */
static const char * gradeAnswer6_xpm[] = {
"32 32 3 1",
"   c None",
".  c #008D18",
"+  c #000000",
"                                ",
"                                ",
"                                ",
"                                ",
"                                ",
"              ....              ",
"           ..........           ",
"         ......  .....          ",
"        ....        ....        ",
"       ...           ...        ",
"       ...            ...       ",
"      ...     ++++     ...      ",
"      ..     ++++++     ..      ",
"     ...    +++  ++     ..      ",
"     ...    ++          ...     ",
"     ..     ++++++      ...     ",
"     ..     +++++++     ...     ",
"     ...    ++   ++     ...     ",
"     ...    ++   ++     ..      ",
"      ..    ++   ++     ..      ",
"      ...    +++++     ...      ",
"      ...     +++     ...       ",
"       ...            ...       ",
"        ...         ....        ",
"         .....    .....         ",
"          ...........           ",
"             ......             ",
"                                ",
"                                ",
"                                ",
"                                ",
"                                "};
