/* XPM */
static const char * help_xpm[] = {
"32 32 400 2",
"   c None",
".  c #EDD500",
"+  c #EDD400",
"@  c #F2E046",
"#  c #FDFBE6",
"$  c #FAF4BD",
"%  c #F0DA25",
"&  c #8E8F89",
"*  c #8E918C",
"=  c #8F908A",
"-  c #8D8F8A",
";  c #EED400",
">  c #EDD504",
",  c #EFD91D",
"'  c #EED608",
")  c #EED506",
"!  c #FCF8D4",
"~  c #F2E047",
"{  c #EFDE65",
"]  c #B76D64",
"^  c #9E3731",
"/  c #A9ABA4",
"(  c #D0D3D0",
"_  c #E2E3E0",
":  c #EAECEA",
"<  c #EAECE9",
"[  c #E1E3DF",
"}  c #CECFCC",
"|  c #A7A7A3",
"1  c #9E3631",
"2  c #B66848",
"3  c #F9F4E4",
"4  c #FCF7D0",
"5  c #FEFCED",
"6  c #F5E876",
"7  c #EDD300",
"8  c #F2E049",
"9  c #FBF6CC",
"0  c #F8EE9C",
"a  c #D2A614",
"b  c #A21613",
"c  c #B24A47",
"d  c #E9B8B7",
"e  c #F9F5F3",
"f  c #FDFDFD",
"g  c #FEFEFE",
"h  c #FCFCFC",
"i  c #F8F2F0",
"j  c #E5AFAE",
"k  c #B14241",
"l  c #A21A16",
"m  c #D2A713",
"n  c #EFD91C",
"o  c #FCF7D2",
"p  c #F2DF42",
"q  c #F1DD37",
"r  c #FBF6C9",
"s  c #F3E357",
"t  c #C48D1C",
"u  c #A31010",
"v  c #CF9C9A",
"w  c #F7CBC9",
"x  c #F68C8C",
"y  c #F69E9E",
"z  c #FAFAFA",
"A  c #F9F9F9",
"B  c #F9F9F8",
"C  c #F69F9F",
"D  c #F89A9A",
"E  c #F7C8C7",
"F  c #CB8E8D",
"G  c #A3100F",
"H  c #BB7C24",
"I  c #F3E45C",
"J  c #F9F0A4",
"K  c #EFD91F",
"L  c #FDFBE7",
"M  c #EDD401",
"N  c #CB9C18",
"O  c #D8B5B4",
"P  c #F7C6C6",
"Q  c #F58181",
"R  c #F04848",
"S  c #F03736",
"T  c #F6F0EF",
"U  c #F4F4F3",
"V  c #F4F4F2",
"W  c #F5E0DF",
"X  c #F04040",
"Y  c #F36868",
"Z  c #F69393",
"`  c #F7C6C5",
" . c #D6A7A5",
".. c #DBB314",
"+. c #FCF8D5",
"@. c #F7EC8D",
"#. c #F1DD34",
"$. c #FCF9DA",
"%. c #EFD817",
"&. c #EBD213",
"*. c #A31C16",
"=. c #CA9692",
"-. c #F7C7C6",
";. c #F58282",
">. c #F14A4A",
",. c #EF2929",
"'. c #F0B2B2",
"). c #F1F1EF",
"!. c #F09898",
"~. c #F03F3F",
"{. c #F26868",
"]. c #F6C5C5",
"^. c #C78886",
"/. c #A11B17",
"(. c #ECD315",
"_. c #F9F1AC",
":. c #F9F2AF",
"<. c #FDF9DD",
"[. c #BE7869",
"}. c #AF4240",
"|. c #F5CAC8",
"1. c #F68686",
"2. c #F14B4B",
"3. c #EF2A2A",
"4. c #F13F3F",
"5. c #EC8D8D",
"6. c #CFCFCC",
"7. c #BCBEBB",
"8. c #BCBDBA",
"9. c #ED8787",
"0. c #F14545",
"a. c #F04141",
"b. c #F26969",
"c. c #F69595",
"d. c #F4C7C6",
"e. c #AD3835",
"f. c #BB7020",
"g. c #F5E66D",
"h. c #FCF7CE",
"i. c #E9D203",
"j. c #A30B0A",
"k. c #E1ADAC",
"l. c #F58F8F",
"m. c #F14E4E",
"n. c #F24B4B",
"o. c #D64242",
"p. c #A80F0F",
"q. c #93756F",
"r. c #92716E",
"s. c #A81110",
"t. c #DA4C4C",
"u. c #F25555",
"v. c #F04242",
"w. c #F36C6C",
"x. c #F59C9B",
"y. c #DFA8A5",
"z. c #A21312",
"A. c #F8F1B5",
"B. c #A49A96",
"C. c #F4F5F4",
"D. c #FDEFEF",
"E. c #F49796",
"F. c #EF3232",
"G. c #F14242",
"H. c #D43F3F",
"I. c #A51413",
"J. c #A41413",
"K. c #D94D4D",
"L. c #F03131",
"M. c #F49B9A",
"N. c #FCEFEF",
"O. c #F4F5F2",
"P. c #A6988B",
"Q. c #CFBE28",
"R. c #C9CBC7",
"S. c #F7F7F6",
"T. c #F2DAD9",
"U. c #E66B6B",
"V. c #A70C0C",
"W. c #A80D0D",
"X. c #EA7A7A",
"Y. c #F3D5D3",
"Z. c #F7F7F7",
"`. c #F6F7F5",
" + c #C7C9C4",
".+ c #8A8C89",
"++ c #8D8F8B",
"@+ c #DEE0DC",
"#+ c #FBFBFB",
"$+ c #F6F6F5",
"%+ c #F3F3F2",
"&+ c #BC9794",
"*+ c #9B3B38",
"=+ c #9C423F",
"-+ c #C19D9B",
";+ c #F3F3F3",
">+ c #F8F9F8",
",+ c #DBDDDA",
"'+ c #8E908B",
")+ c #8C8E89",
"!+ c #E8E9E6",
"~+ c #FBFBFA",
"{+ c #9D9F9C",
"]+ c #A3A5A1",
"^+ c #F5F5F3",
"/+ c #FAFAF9",
"(+ c #E5E6E4",
"_+ c #8C8F89",
":+ c #898B86",
"<+ c #EDEFEC",
"[+ c #949691",
"}+ c #9A9B97",
"|+ c #F6F6F4",
"1+ c #EAEBE8",
"2+ c #8A8C87",
"3+ c #8C8E88",
"4+ c #E6E7E5",
"5+ c #F8F8F7",
"6+ c #F6F6F6",
"7+ c #F4F4F4",
"8+ c #9FA19D",
"9+ c #A6A7A3",
"0+ c #FCFCFB",
"a+ c #F7F8F7",
"b+ c #E4E5E1",
"c+ c #8C8F88",
"d+ c #DCDDD9",
"e+ c #F5F5F4",
"f+ c #FDFDFC",
"g+ c #BE9C99",
"h+ c #98423F",
"i+ c #9B3230",
"j+ c #C6ADAA",
"k+ c #D8DAD6",
"l+ c #C5C8C3",
"m+ c #F1F3F0",
"n+ c #FBDCDC",
"o+ c #F5A4A3",
"p+ c #F3A8A7",
"q+ c #E8BCBB",
"r+ c #A21111",
"s+ c #A41212",
"t+ c #ECDDDC",
"u+ c #F5C1C0",
"v+ c #F6B1B0",
"w+ c #F1F2EF",
"x+ c #C3C6BE",
"y+ c #A79A8D",
"z+ c #F09B99",
"A+ c #EF2B2B",
"B+ c #F03232",
"C+ c #F26565",
"D+ c #F5ACAB",
"E+ c #CF8B89",
"F+ c #9F1919",
"G+ c #A11A19",
"H+ c #D4A9A8",
"I+ c #F6CFCE",
"J+ c #F38181",
"K+ c #F14747",
"L+ c #EF9393",
"M+ c #A1938D",
"N+ c #EBD307",
"O+ c #A60E0C",
"P+ c #E85050",
"Q+ c #F03434",
"R+ c #F26867",
"S+ c #F7BBBB",
"T+ c #D59A98",
"U+ c #AA1B1A",
"V+ c #93726E",
"W+ c #92736D",
"X+ c #AB1E1E",
"Y+ c #DBB8B7",
"Z+ c #F9DBDA",
"`+ c #F28484",
" @ c #F04949",
".@ c #F03333",
"+@ c #E64747",
"@@ c #A60B0A",
"#@ c #E9D204",
"$@ c #F9F0A8",
"%@ c #BC745D",
"&@ c #BC2221",
"*@ c #F25454",
"=@ c #F03636",
"-@ c #F6B8B8",
";@ c #F3EBE9",
">@ c #DFDEDD",
",@ c #CDCDCB",
"'@ c #CECFCD",
")@ c #E3E2E1",
"!@ c #F6F1F0",
"~@ c #F8D5D4",
"{@ c #F28686",
"]@ c #F24F4F",
"^@ c #B91E1E",
"/@ c #C07B73",
"(@ c #F4E45E",
"_@ c #F4E460",
":@ c #FAF3B6",
"<@ c #EAD005",
"[@ c #A51412",
"}@ c #D93E3E",
"|@ c #F14949",
"1@ c #F03838",
"2@ c #F5ACAC",
"3@ c #F8F8F8",
"4@ c #F5ABAB",
"5@ c #F14D4D",
"6@ c #F14646",
"7@ c #D83939",
"8@ c #A51713",
"9@ c #EED82E",
"0@ c #FCF8D7",
"a@ c #F4E668",
"b@ c #F9F2B0",
"c@ c #F5E875",
"d@ c #F1DD33",
"e@ c #D9B21B",
"f@ c #A70D0C",
"g@ c #E44A4A",
"h@ c #FCEAE9",
"i@ c #FBD4D4",
"j@ c #E24545",
"k@ c #A70B0B",
"l@ c #CDA311",
"m@ c #F8EE9D",
"n@ c #ECD500",
"o@ c #F2DF41",
"p@ c #FBF5C1",
"q@ c #FDFAE4",
"r@ c #C99421",
"s@ c #A70C0B",
"t@ c #DB4141",
"u@ c #F25252",
"v@ c #F05E5D",
"w@ c #F2F3F1",
"x@ c #F2F2F0",
"y@ c #D93C3C",
"z@ c #A80B0B",
"A@ c #B27B1F",
"B@ c #FDFAE1",
"C@ c #F5E770",
"D@ c #ECD50D",
"E@ c #E6CD00",
"F@ c #EBD200",
"G@ c #FBF4C0",
"H@ c #F1DF3F",
"I@ c #CFA314",
"J@ c #A61211",
"K@ c #BE2626",
"L@ c #E08483",
"M@ c #E7EAE5",
"N@ c #E9EBE8",
"O@ c #ECEDEA",
"P@ c #EDEFEB",
"Q@ c #EBEDEA",
"R@ c #E7E9E5",
"S@ c #E17A78",
"T@ c #BB2322",
"U@ c #A51310",
"V@ c #8D5D20",
"W@ c #E8CF00",
"X@ c #FDFAE3",
"Y@ c #EFDA21",
"Z@ c #DBC500",
"`@ c #E3CC00",
" # c #F8EFA0",
".# c #F4E461",
"+# c #EFD818",
"@# c #F6EFD3",
"## c #B36028",
"$# c #A0302E",
"%# c #9EA09B",
"&# c #C1C4BE",
"*# c #D1D3CE",
"=# c #D9DCD7",
"-# c #D9DCD6",
";# c #D0D2CD",
"># c #C0C3BD",
",# c #9D9E9A",
"'# c #A02F2C",
")# c #B66746",
"!# c #F4E7A1",
"~# c #EDD603",
"{# c #F1DD36",
"]# c #F4E564",
"^# c #DFC800",
"/# c #828580",
"(# c #898B85",
"_# c #8A8C88",
":# c #898A87",
"<# c #82847E",
"[# c #ECD405",
"}# c #F7EB88",
"|# c #F0DC2E",
"1# c #F2E14D",
"2# c #EFDA23",
"3# c #F0DA26",
"                                                                ",
"                                                                ",
"              . + +                                             ",
"              @ # $ %     & * = - * =     ; > , ' .             ",
"            ) ! ~ { ] ^ / ( _ : < [ } | 1 2 3 4 5 6 7           ",
"        . 8 9 0 a b c d e f g f f g h i j k l m n o p           ",
"    ; q r o s t u v w x y z A B B A z C D E F G H I J +         ",
"    K L s M N u O P Q R S T U V V U W X Y Z `  .u ..+.@.'       ",
"    #.$.%.&.*.=.-.;.>.,.,.'.).).).).!.,.~.{.Z ].^./.(._.:.+     ",
"    + @.<.[.}.|.1.2.,.3.4.5.6.7.8.6.9.0.3.a.b.c.d.e.f.g.h.+     ",
"      7 i.j.k.l.m.,.3.n.o.p.q.    r.s.t.u.3.v.w.x.y.z.A.%       ",
"          B.C.D.E.F.G.H.I.            J.K.n.L.M.N.O.P.Q.        ",
"        - R.S.h S.T.U.V.                W.X.Y.Z.h `. +.+        ",
"        ++@+B #+$+%+&+*+                =+-+;+$+#+>+,+'+        ",
"        )+!+z ~+$+V {+                    ]+^+$+~+/+(+_+        ",
"        :+<+/+~+$+U [+                    }+|+$+~+/+1+2+        ",
"        3+4+5+#+6+7+8+                    9+$+S.0+a+b+c+        ",
"        ++d+e+f+5+e+g+h+                i+j+$+5+f+e+k+'+        ",
"        c+l+m+n+o+p+q+r+                s+t+u+v+n+w+x+.+        ",
"          y+z+A+B+C+D+E+F+            G+H+I+J+K+A+L+M+          ",
"        N+O+P+Q+,.Q+R+S+T+U+V+    W+X+Y+Z+`+ @,..@+@@@#@        ",
"      M $@%@&@*@A+,.=@b.-@;@>@,@'@)@!@~@{@>.,.3.]@^@/@(@+       ",
"      _@:@<@[@}@|@,.,.1@2@S.5+3@3@5+S.4@5@,.,.6@7@8@9@0@a@.     ",
"    ; b@c@d@e@f@g@>.A+A+h@h ~+z z ~+h i@,.3.K+j@k@l@#.:@m@n@    ",
"      o@p@9 q@r@s@t@u@v@w@a+#+f f #+a+x@ @]@y@z@A@(@B@C@D@      ",
"        E@F@G@H@I@J@K@L@M@N@O@P@P@Q@N@R@S@T@U@V@W@X@Y@Z@        ",
"          `@ #.#+#@###$#%#&#*#=#-#;#>#,#'#)#!#~#+#L F@          ",
"            {## o ]#^#    /#(#2+_#:#<#    [#:.B@B@}#.           ",
"            + |#1#.                         + 2#3#+             ",
"                                                                ",
"                                                                ",
"                                                                "};
