/* XPM */
static const char * inverseCheckedTerms_xpm[] = {
"32 32 61 1",
"   c None",
".  c #000000",
"+  c #080808",
"@  c #747674",
"#  c #7E807E",
"$  c #7C7E7C",
"%  c #858785",
"&  c #3E3F3E",
"*  c #009600",
"=  c #0F0F0F",
"-  c #F0F0F0",
";  c #FFFFFF",
">  c #808080",
",  c #00DC00",
"'  c #E9EDE9",
")  c #FCFFFC",
"!  c #F8FCF8",
"~  c #EDF0ED",
"{  c #0E0E0E",
"]  c #DBDFDB",
"^  c #EDF1ED",
"/  c #F9FEF9",
"(  c #757775",
"_  c #010101",
":  c #101010",
"<  c #7B7D7B",
"[  c #8B8D8B",
"}  c #636563",
"|  c #282928",
"1  c #7D7F7D",
"2  c #404140",
"3  c #CFD1CF",
"4  c #424442",
"5  c #0F0E0F",
"6  c #848484",
"7  c #6F716F",
"8  c #A3A5A3",
"9  c #C7C8C7",
"0  c #353635",
"a  c #1B1B1B",
"b  c #808280",
"c  c #232323",
"d  c #3F403F",
"e  c #2D2D2D",
"f  c #E5E9E5",
"g  c #0A0A0A",
"h  c #6D6F6D",
"i  c #C3C7C3",
"j  c #121212",
"k  c #EDEDED",
"l  c #666766",
"m  c #343534",
"n  c #C7C7C7",
"o  c #F2F5F2",
"p  c #E0E1E0",
"q  c #777977",
"r  c #BFBFBF",
"s  c #DADEDA",
"t  c #F2F6F2",
"u  c #FBFFFB",
"v  c #E8ECE8",
"                                ",
"                                ",
"                                ",
"                                ",
" ............                   ",
" ............                   ",
" .+@#$$$$$%&.    ***            ",
" .=-;;;;;;;>.    ,,,**          ",
" .=')!!!!!;$.       ,,*         ",
" .=')!!!!!;$.         ,*        ",
" .=')!!!!!;$.         ,*        ",
" .=')!!!!!;$.          ,*       ",
" .=~;)))));#.          ,*       ",
" .{]^'''''/(.          ,*       ",
" ._{======:+.        *******    ",
" ............         *****     ",
"       *               ***      ",
"      ***               *       ",
"     *****         ............ ",
"    *******        ............ ",
"       *,          .+@#$<[}|12. ",
"       *,          .=-;;;345;6. ",
"       *,          .+78;90.a)b. ",
"        *          ...c%d.ef;$. ",
"        *,         .ghg..0i;;$. ",
"         *,,       .jkl.mn;!;$. ",
"          **,,,    .=opqr;));#. ",
"            ***    .{stutv''/(. ",
"                   ._{======:+. ",
"                   ............ ",
"                                ",
"                                "};
