/* XPM */
static const char * maximize_xpm[] = {
"32 32 3 1",
"   c None",
".  c #B50BF4",
"+  c #0000FF",
"                                ",
"                                ",
"                                ",
"                                ",
"                                ",
"                                ",
"                                ",
"                                ",
"                                ",
"           ...........          ",
"           ...........          ",
"           ..       ..          ",
"           ..       ..          ",
"           ..       ..          ",
"        +++..++++   ..          ",
"        +++..++++   ..          ",
"        ++ ..  ++   ..          ",
"        ++ ..  ++   ..          ",
"        ++ ...........          ",
"        ++ ...........          ",
"        ++     ++               ",
"        +++++++++               ",
"        +++++++++               ",
"                                ",
"                                ",
"                                ",
"                                ",
"                                ",
"                                ",
"                                ",
"                                ",
"                                "};
