/* XPM */
static const char * openedVocab_xpm[] = {
"16 16 7 1",
"   c None",
".  c #808080",
"+  c #C0C0C0",
"@  c #000000",
"#  c #FF0000",
"$  c #FFFFFF",
"%  c #FFFF00",
"  .             ",
" .+.            ",
"@#$+.    ...    ",
"@#$$.  ..$$.    ",
"@#$$+..$$$%.@@  ",
"@#$$$@+$%$$.$#@ ",
"@#$$$@+$$$%.$#@ ",
"@#$$$@+$%$$.$#@ ",
"@#$$$@+$$$%.$#@ ",
"@#$$$@+$%$$.$#@ ",
"@##$$@+$$$%.$#@ ",
" @##$@+$.@@@$#@ ",
"  @#$@@@.++$$#@ ",
"  @#@@########@ ",
"  @###@@@@@@@@@ ",
"   @@@          "};
