/* XPM */
static const char * openedFolder_xpm[] = {
"17 16 11 1",
"   c None",
".  c #000000",
"+  c #FFAA5A",
"@  c #838183",
"#  c #FFDEAC",
"$  c #A4A1A4",
"%  c #313031",
"&  c #5A595A",
"*  c #C5C2C5",
"=  c #DEDEDE",
"-  c #FFFFFF",
"     ...         ",
"     .+@..       ",
"     .+#+@....   ",
" ... .+######+.  ",
" .$$%&+++#####+. ",
" .@$$$@++++###+@.",
"  %$$$$@@++++#+@.",
"  .@$$**$@@++++@.",
"   %$*$****@@++@.",
"   .@****=*=$++@.",
"    %@=***=-#&+@.",
"     .%$==---$+@.",
"       .%*---#&@.",
"         .%*--@@.",
"           .%*-@.",
"             .%%."};
