/* XPM */
static const char * pause_xpm[] = {
"32 32 256 2",
"   c None",
".  c #F5F2F5",
"+  c #F2F0F2",
"@  c #E9E7E9",
"#  c #F0EFF0",
"$  c #F3F0F6",
"%  c #F6F5F7",
"&  c #EDEBF2",
"*  c #F0EFF6",
"=  c #F8F8FE",
"-  c #F0F0F6",
";  c #F7F7FB",
">  c #F3F3F7",
",  c #EDEDF1",
"'  c #EAEAEE",
")  c #F6F6F9",
"!  c #F0F0F3",
"~  c #F3F3F5",
"{  c #F5F5F6",
"]  c #EDEDEE",
"^  c #F3F4FB",
"/  c #EBECF3",
"(  c #F6F7FD",
"_  c #F4F5FB",
":  c #EDEEF4",
"<  c #E4E5EB",
"[  c #F4F6FE",
"}  c #F0F2F9",
"|  c #F7F9FF",
"1  c #E6E8EE",
"2  c #F9FAFD",
"3  c #F5F6F9",
"4  c #F4F5F8",
"5  c #F0F1F4",
"6  c #E6E9F0",
"7  c #FCFDFF",
"8  c #EAEEF4",
"9  c #EFF2F6",
"0  c #FBFDFF",
"a  c #F0F2F4",
"b  c #FDFEFF",
"c  c #F0F4F5",
"d  c #F9FAFA",
"e  c #F5F6F6",
"f  c #F9FAF9",
"g  c #F2F3F2",
"h  c #EAEBEA",
"i  c #E7E8E7",
"j  c #E8E8E5",
"k  c #F2F2F0",
"l  c #E4E4E2",
"m  c #FDFDFC",
"n  c #F6F6F5",
"o  c #E2E2E1",
"p  c #D9D9D8",
"q  c #D0D0CF",
"r  c #F6E256",
"s  c #FBE75C",
"t  c #F0DE5F",
"u  c #EFDE64",
"v  c #FDEA6B",
"w  c #FDED7A",
"x  c #F8E87C",
"y  c #F9E97F",
"z  c #FAEC87",
"A  c #FBEE8D",
"B  c #FDEF93",
"C  c #DBDAD2",
"D  c #F5DA39",
"E  c #EED338",
"F  c #F3DA45",
"G  c #FAE24A",
"H  c #EED54C",
"I  c #FAE455",
"J  c #F4DF59",
"K  c #EFD95E",
"L  c #FBE464",
"M  c #EBD766",
"N  c #E4D163",
"O  c #EAD668",
"P  c #F6E26E",
"Q  c #EFDB6B",
"R  c #FAE676",
"S  c #FBE877",
"T  c #FBE878",
"U  c #F9E678",
"V  c #FDEB7D",
"W  c #FAE97F",
"X  c #D2C26B",
"Y  c #FAEA82",
"Z  c #FBEA84",
"`  c #FEEE86",
" . c #EADC90",
".. c #ECE09D",
"+. c #E9CA2B",
"@. c #EECE2E",
"#. c #EFD450",
"$. c #F1D552",
"%. c #E1C84F",
"&. c #CCB648",
"*. c #F4DA59",
"=. c #F2D85A",
"-. c #F3D95E",
";. c #EAD25C",
">. c #E7D15B",
",. c #CEB952",
"'. c #F6DD66",
"). c #E3CD62",
"!. c #F5DF6C",
"~. c #F8E373",
"{. c #EBD872",
"]. c #C7BF97",
"^. c #D0C9A9",
"/. c #DBB007",
"(. c #DEB40B",
"_. c #E2BA1D",
":. c #E7C224",
"<. c #E6C234",
"[. c #E9C536",
"}. c #EBCB3C",
"|. c #E6C63C",
"1. c #DBBC39",
"2. c #E9C83F",
"3. c #EDCF47",
"4. c #EDCF49",
"5. c #DFC347",
"6. c #CAB141",
"7. c #D8BF59",
"8. c #BDAB5D",
"9. c #EBE0B4",
"0. c #CAC29F",
"a. c #C49800",
"b. c #DAAC01",
"c. c #D6A602",
"d. c #C89C02",
"e. c #CAA003",
"f. c #D7AA06",
"g. c #D9AD07",
"h. c #D3A507",
"i. c #D9AE09",
"j. c #D7AB09",
"k. c #DEB415",
"l. c #BB9812",
"m. c #D1AA19",
"n. c #D3AB21",
"o. c #C8A428",
"p. c #D7B32C",
"q. c #C7A634",
"r. c #B59D48",
"s. c #CE9D00",
"t. c #CA9900",
"u. c #C29400",
"v. c #D3A201",
"w. c #D5A606",
"x. c #D1A107",
"y. c #D1A208",
"z. c #CE9E08",
"A. c #AE890B",
"B. c #B58F0F",
"C. c #DAB94A",
"D. c #C7B26C",
"E. c #CDB97C",
"F. c #C4B78D",
"G. c #EBE2C5",
"H. c #C89400",
"I. c #C69100",
"J. c #C49000",
"K. c #C38F00",
"L. c #C28D00",
"M. c #C18D00",
"N. c #BF8F00",
"O. c #C49201",
"P. c #D09C02",
"Q. c #BD8A02",
"R. c #CD9903",
"S. c #C69303",
"T. c #C59403",
"U. c #C59303",
"V. c #C38F03",
"W. c #C99604",
"X. c #C79404",
"Y. c #C69304",
"Z. c #C38F04",
"`. c #CE9C06",
" + c #CD9906",
".+ c #CB9806",
"++ c #C2920A",
"@+ c #B9901A",
"#+ c #B49335",
"$+ c #DBC486",
"%+ c #F0E8D0",
"&+ c #EAE4D2",
"*+ c #DAD7CE",
"=+ c #C48E00",
"-+ c #BE8900",
";+ c #BD8900",
">+ c #BC8700",
",+ c #BA8500",
"'+ c #BA8300",
")+ c #C08B01",
"!+ c #BD8903",
"~+ c #C08B04",
"{+ c #BC8B0C",
"]+ c #C1962E",
"^+ c #CCA64B",
"/+ c #D3BC84",
"(+ c #DCC792",
"_+ c #C79E3F",
":+ c #CBA756",
"<+ c #E2D3B1",
"[+ c #E1DED7",
"}+ c #EFE9DD",
"|+ c #EEEAE2",
"1+ c #DAD7D1",
"2+ c #F2EFE9",
"3+ c #F6F5F3",
"4+ c #F1F0EE",
"5+ c #EAE9E7",
"6+ c #E0DFDD",
"7+ c #D3D2D0",
"8+ c #DDD9D2",
"9+ c #EFEDEA",
"0+ c #DAD8D5",
"a+ c #DDDAD6",
"b+ c #CCC9C5",
"c+ c #EDE6DD",
"d+ c #D8D4CF",
"e+ c #D3CFCA",
"f+ c #CAC7C4",
"g+ c #E5E3E1",
"h+ c #FBFAF9",
"i+ c #F2F1F0",
"j+ c #EFEEED",
"k+ c #ECEBEA",
"l+ c #EBEAE9",
"m+ c #EAE9E8",
"n+ c #DDDCDB",
"o+ c #D7D6D5",
"p+ c #E2E0DF",
"q+ c #CDCBCA",
"r+ c #C7C5C4",
"s+ c #F4F2F2",
"t+ c #FAF9F9",
"u+ c #F6F5F5",
"v+ c #F0EFEF",
"w+ c #E9E8E8",
"x+ c #DBDADA",
"y+ c #FEFEFE",
"z+ c #FBFBFB",
"A+ c #FAFAFA",
"B+ c #F9F9F9",
"C+ c #F6F6F6",
"D+ c #F5F5F5",
"E+ c #F0F0F0",
"F+ c #ECECEC",
"G+ c #E6E6E6",
"                      z+s+5+o o o w+i+B+b                       ",
"                  B+4+l+h ] , * * , h i j 9+d                   ",
"              f 9+5+] & c+G.9.....9.&+l+: m+g+k+m               ",
"            s+5+, F+9.{.J I s s s s r t  .&+: @ o 3+            ",
"          v+l+* G.u G v ` A B B B B A w I F  .k+, 6+E+          ",
"        4+h * ..F L z A z z z z z z z A A V G K &+5 6+j+        ",
"      ~ l+!  .D S Y W W W W W y y W W W W Y Z I F &+! n+D+      ",
"    h+m+> ..D R U U R R S S T U U S S S R U U x r H }+] 6+m     ",
"    j+! G.@.L P P P P O N N M P !.N N N Q P P P ~.D {.~ p+5+    ",
"  t+k++ ;.F '.'.'.'.).].^.^.].).X ].0.0.E.K '.'.'.'.@.9.$ x+A+  ",
"  4+$ 9.+.=.=.=.=.*.7.d+( _ o+,.D.1 = } 0.%.*.=.=.-.E >.. 6+h   ",
"m F+^ {.@.$.#.#.#.#.,.*+! ! C &.D.< E+8 0.5.$.#.#.#.H +.%+, n+  ",
"B+] 2+|.}.4.3.3.3.3.&.C 3 4 8+6.D.1 { ^ 0.1.3.3.3.4.4.:. .^ p B+",
"3+- %+_.[.2.2.2.2.}.6.*+4 > C q.8.1 { ^ 0.1.2.2.2.2.2._.N [ p i+",
"i+} 9.(._.<.<.<.<.<.q.1+3 ) C q.8.' % 4 ].p.[.<.<.<.:.(.%.% n+F+",
"4+> 9././.k.k._._._.o.C 2 2 a+o.8.: z+| ].m._._.k.k.(.b.5.3+n+m+",
"4+^ 9.f.g.i.i.j.j./.l.*+2 = 8+B.r./ f | F.e.i.i.g.i.g.b.C.u+x+w+",
"i+5 G.j.f.f.j.j.f.b.l.d+3 4 1+B.r.6 D+[ F.d.f.f.j.f.f.c.7.; o+k+",
"3+F+}+n.v.h.h.h.h.c.l.*+; 3 1+B.r.6 C+[ F.a.w.h.h.h.h.v.$+( 7+k ",
"t+i ~ C.s.y.x.x.x.v.B.1+2 2 a+A.r.8 B+| F.u.x.x.x.x.x.x.<+9 q A+",
"  i > (+t.z.`.`.`.P.B.8+b 7 [+A.r.} b 0 F.N.`.`.`.z.s.o.2+o o+  ",
"  j+m+}+o.t..+.+.+R.B.e+a a d+A.r.6 c } F.Q. +.+.+.+H.$+( q w+  ",
"  h+p+~ (+O.W.W.W.W.Z.#+#+#+#+~+@+#+#+#+@+T.W.W.W.I.q.|+G+q+z+  ",
"    h l 4+^+M.S.S.U.Y.J.K.K.J.X.I.=+V.V.O.S.U.Y.I.++<+3 q+G+    ",
"    m 6+h c+q.-+V.Z.V.Z.Z.V.Z.V.Z.V.V.V.V.V.Z.L.~+$+) o+q m     ",
"      C+a+] &+_+>+)+~+~+~+~+~+~+~+~+~+~+~+~+-+{+$+> 6+r+e       ",
"        # 0+h |+D.{+,+;+;+!+Q.Q.Q.!+Q.;+>+,+]+<+~ n+r+#         ",
"          E+1+g++ <+:+{+'+'+'+'+'+'+'+,+]+/+c+5 7+r+v+          ",
"        y+  u+a+1+m+# G.(+D.^+_+_+:+E.<+|+! p+f+q n             ",
"              m 5+o+d+6+' # j+k+9+# # G+0+b+q+G+y+              ",
"                  z+k+x+7+q e+7+e+e+q+q+o+m+m                   ",
"                        A+g F+m+w+k+g z+                        "};
