/* XPM */
static const char * play_xpm[] = {
"32 32 256 2",
"   c None",
".  c #EEEBED",
"+  c #F3F1F3",
"@  c #EBE9EB",
"#  c #F1F0F1",
"$  c #EEEDEE",
"%  c #E2E1E2",
"&  c #F6F4F8",
"*  c #F6F5F7",
"=  c #EDECEE",
"-  c #EEEBF2",
";  c #F4F2F8",
">  c #F1EFF6",
",  c #F0EFF3",
"'  c #EFEEF2",
")  c #EDECF0",
"!  c #EEEDF2",
"~  c #F7F6FE",
"{  c #EDEDF3",
"]  c #EBEBF1",
"^  c #F2F2F7",
"/  c #F0F0F5",
"(  c #E6E6EB",
"_  c #F5F5F9",
":  c #FAFAFD",
"<  c #F4F4F7",
"[  c #F2F2F5",
"}  c #EEEEF1",
"|  c #F6F6F8",
"1  c #F1F1F3",
"2  c #FDFDFE",
"3  c #F3F4FB",
"4  c #F4F5FB",
"5  c #F2F3F9",
"6  c #F0F1F7",
"7  c #EDEEF3",
"8  c #EBECF1",
"9  c #F5F6FA",
"0  c #E9EAEE",
"a  c #E0E4F0",
"b  c #EFF0F3",
"c  c #F7F9FE",
"d  c #EDEEF0",
"e  c #F1F3F6",
"f  c #FDFEFF",
"g  c #FBFEFF",
"h  c #F0F2F2",
"i  c #E9EAEA",
"j  c #E6E8E7",
"k  c #E4E4E1",
"l  c #F9F9F7",
"m  c #C6C6C4",
"n  c #FFFFFE",
"o  c #FBFBFA",
"p  c #FAFAF9",
"q  c #F6F6F5",
"r  c #F5F5F4",
"s  c #F3F3F2",
"t  c #DADAD9",
"u  c #D7D7D6",
"v  c #F9E249",
"w  c #FAE454",
"x  c #F4E159",
"y  c #FCE75D",
"z  c #FEED7C",
"A  c #F9E97F",
"B  c #FAEC86",
"C  c #FBEC89",
"D  c #FEF093",
"E  c #F4D839",
"F  c #F2DA45",
"G  c #EED85C",
"H  c #FDE765",
"I  c #FEEA68",
"J  c #F6E064",
"K  c #F1DD63",
"L  c #D2C05B",
"M  c #F8E36E",
"N  c #F7E26F",
"O  c #F9E472",
"P  c #FAE675",
"Q  c #F7E373",
"R  c #FBE877",
"S  c #F8E677",
"T  c #EFDE72",
"U  c #F9E678",
"V  c #F9E67C",
"W  c #FBEA7F",
"X  c #FAE97F",
"Y  c #FCE981",
"Z  c #FAE882",
"`  c #FFEE86",
" . c #FBEA86",
".. c #CDC070",
"+. c #FDED8E",
"@. c #FEEF91",
"#. c #E8C626",
"$. c #EFD12F",
"%. c #DFC441",
"&. c #EFD34C",
"*. c #EFD450",
"=. c #EFD556",
"-. c #F4DA5A",
";. c #F2D959",
">. c #F2D85A",
",. c #F2D95D",
"'. c #E9D15C",
"). c #F6DE64",
"!. c #F5DD65",
"~. c #F7DF67",
"{. c #F5DD66",
"]. c #EAD469",
"^. c #E4CF6B",
"/. c #C5B35F",
"(. c #EBDC91",
"_. c #EADFA5",
":. c #CDC8AF",
"<. c #EEE9D2",
"[. c #D6D5D0",
"}. c #DDB40A",
"|. c #DEB513",
"1. c #E2BA1C",
"2. c #EDCB31",
"3. c #E6C232",
"4. c #E5C235",
"5. c #E7C739",
"6. c #EBCA3B",
"7. c #E9C83F",
"8. c #CCAF37",
"9. c #EDCF47",
"0. c #EDCF49",
"a. c #CBB346",
"b. c #DAC155",
"c. c #E8D271",
"d. c #C0B174",
"e. c #C7BD95",
"f. c #DBDAD6",
"g. c #D6A800",
"h. c #DBAE03",
"i. c #D5A805",
"j. c #D7AA07",
"k. c #D3A507",
"l. c #D9AE08",
"m. c #D4A608",
"n. c #C09707",
"o. c #D7AA09",
"p. c #B89210",
"q. c #BD9813",
"r. c #D3AC1A",
"s. c #B79B38",
"t. c #D9BB4C",
"u. c #E1C353",
"v. c #B9A357",
"w. c #EBE0B6",
"x. c #ECE4C5",
"y. c #D5D1C3",
"z. c #DBD9D2",
"A. c #CD9B00",
"B. c #C69500",
"C. c #CF9E01",
"D. c #D2A202",
"E. c #C79704",
"F. c #D1A105",
"G. c #CFA005",
"H. c #CF9F05",
"I. c #CE9C05",
"J. c #CD9E06",
"K. c #D2A207",
"L. c #D1A107",
"M. c #CBA42A",
"N. c #C79300",
"O. c #C59100",
"P. c #BE8C00",
"Q. c #C28F01",
"R. c #C99602",
"S. c #BD8A02",
"T. c #C69303",
"U. c #C59303",
"V. c #C29003",
"W. c #CD9904",
"X. c #B58603",
"Y. c #C69204",
"Z. c #C38F04",
"`. c #BF8C04",
" + c #C99505",
".+ c #C99605",
"++ c #CE9C06",
"@+ c #CB9806",
"#+ c #C08E07",
"$+ c #C39209",
"%+ c #B48B12",
"&+ c #B18B1A",
"*+ c #E9E6DE",
"=+ c #DDDBD5",
"-+ c #D9D8D5",
";+ c #D8D7D4",
">+ c #C48E00",
",+ c #C08A00",
"'+ c #BD8600",
")+ c #B98500",
"!+ c #BD8901",
"~+ c #BE8902",
"{+ c #BD8903",
"]+ c #C08B04",
"^+ c #BD8904",
"/+ c #BC8A0C",
"(+ c #C1982C",
"_+ c #C69F3D",
":+ c #CAA74D",
"<+ c #CAA856",
"[+ c #DBC48A",
"}+ c #C0AF82",
"|+ c #EAE3D2",
"1+ c #B98200",
"2+ c #CFAF67",
"3+ c #D2B778",
"4+ c #E1D2B1",
"5+ c #F0E6D2",
"6+ c #DFDDD9",
"7+ c #F5F4F2",
"8+ c #E4E3E1",
"9+ c #EDE8DF",
"0+ c #CCC8C1",
"a+ c #ECE9E5",
"b+ c #F2EFEC",
"c+ c #E3E0DD",
"d+ c #D0CECC",
"e+ c #F4F3F2",
"f+ c #F3F2F1",
"g+ c #F1F0EF",
"h+ c #EFEEED",
"i+ c #EDECEB",
"j+ c #EBEAE9",
"k+ c #E2E1E0",
"l+ c #DCDBDA",
"m+ c #E9E7E6",
"n+ c #DFDDDC",
"o+ c #D3D0CF",
"p+ c #EFE9E8",
"q+ c #F3F1F1",
"r+ c #CCCACA",
"s+ c #FCFBFB",
"t+ c #FAF9F9",
"u+ c #F6F5F5",
"v+ c #F0EFEF",
"w+ c #EEEDED",
"x+ c #EDECEC",
"y+ c #EBEAEA",
"z+ c #EAE9E9",
"A+ c #FDFDFD",
"B+ c #F9F9F9",
"C+ c #F6F6F6",
"D+ c #E9E9E9",
"E+ c #E8E8E8",
"F+ c #E6E6E6",
"G+ c #DFDFDF",
"                      o s z+% k+k+m+q+l 2                       ",
"                  l h+y+@ ) 7 ' 7 d @ m+m+w+p                   ",
"              p w+z+{ ] 9+x._._._.w.|+p+- i 8+y+s+              ",
"          n e+z+! . w.T x w y y y w w K (.|+> E+k+r             ",
"          g+z+/ x.K v I ` @.D D D D +.z w F (.p+' G+v+          ",
"      n g+y+, _.E H C C C C C  . .B B C +.W v G |+/ n+#         ",
"      7+j++ (.E R  .Y W W X A A A A A A A Z  .w F |+b l+r       ",
"    o a+3 (.$.O V U Q T O R U S S S S S S S S V w &.9+= n+A+    ",
"    $ / x.$.~.Q N M ^.e...].M M N N N N N N N N Q E ].^ k+E+    ",
"  t+y+^ '.F ~.!.{.J L u n+e.L G J ~.).{.{.{.{.{.{.{.$.w.e t p   ",
"  g+1 x.#.;.,.>.;.-.L ;+[ 8 y.d.b.=.-.>.>.>.>.>.>.,.E '.; G+i   ",
"2 i+4 c.2.=.*.*.*.*.t.f.1 g+e ( :./.%.&.*.*.*.*.*.*.&.#.5+= l+  ",
"p w+b+5.6.0.9.9.9.9.a.f.< C+s f+e % e.a.%.9.9.9.9.9.0.#.(.3 -+B+",
"C+1 <.1.5.7.7.7.7.6.a.z.< B+B+r # [ 6 [.d.8.4.6.7.7.7.1.^.~ t q+",
"r 5 w.}.1.3.4.4.4.3.8.f.| o o | r s # [ { :.v.8.4.3.#.}.u.* l+x+",
"r 3 _.l.}.|.|.1.1.1.M.6+: A+A+s+s+s+B+s + 4 a }+r.|.}.h.t.r n+D+",
"r _ w.j.l.l.l.j.j.h.q.f.: o o B+B+A+2 B+c 0 e.s.i.l.l.g.t.q t E+",
"r [ x.o.i.j.j.j.j.h.q.z._ B+p B+t+A+n c y.v.n.g.j.j.j.g.b.| u y+",
"C+= 9+r.k.k.k.k.k.i.q.z.| o A+A+n n *+d.p.C.i.m.m.k.k.D.[+c o+s ",
"p m++ t.C.F.L.L.F.D.p.=+: A+A+f } e.&+O.D.K.F.L.L.F.F.H.w./ d+p ",
"2 m+5 [+W.I.++++++C.%+=+g n 4 :.s.S.A.H.J.++++++++++A.M.b+k+;+  ",
"  h+i 9+M.R.@+@+@+W.%+G+g z.v.X.O.++@+@+@+@+@+@+@+@+B.[+9 d+i   ",
"  p c+^ [+O.R..+.+R.%+0+}+&+!+R.E. + + + +.+.+.+.+N.M.p+j r+s+  ",
"    i+k b+:+>+Y.U.Y.#+%+X.>+T.U.U.T.T.T.T.T.T.T.O.$+4+| r+F+    ",
"    s+c+i *+_+,+Z.V.Q.Q.V.Z.Z.Z.Z.Z.Z.Z.Z.Z.Z.Q.`.[+9 ;+o+2     ",
"      q t i+|+_+'+,+`.`.]+`.]+]+]+]+]+]+`.`.,+/+[+^ n+m q       ",
"        # z.j+a+2+/+)+!+S.^+{+{+{+~+S.!+'+)+(+4+& 6+m v+        ",
"          g+-+% / 4+<+/+)+1+1+)+)+1+1+)+(+[+9+h [.m v+          ",
"            C+f.;+@ # |+[+2+:+_+_+<+3+4+a+' c+m d+C+            ",
"              A+E+[.[.k+0 - . x+h+v+b E+f.r+r+F+2               ",
"                  o j+t [.o+o+o+o+d+r+d+u D+s+                  ",
"                        o f+x+z+z+x++ s+                        "};
