/* XPM */
static const char * preferences_xpm[] = {
"32 32 159 2",
"   c None",
".  c #C2C2C2",
"+  c #1E1E1E",
"@  c #2D2D2D",
"#  c #C3C3C3",
"$  c #A1A1A1",
"%  c #1D1D1D",
"&  c #959595",
"*  c #272727",
"=  c #0D0D0D",
"-  c #A4A4A4",
";  c #C0C0C0",
">  c #E4E4E4",
",  c #B3B3B3",
"'  c #787878",
")  c #383838",
"!  c #B0B0B0",
"~  c #B4B4B4",
"{  c #242424",
"]  c #393939",
"^  c #DEDEDE",
"/  c #D4D4D4",
"(  c #7F7F7F",
"_  c #5A5A5A",
":  c #171717",
"<  c #B7B7B7",
"[  c #A6A6A6",
"}  c #212121",
"|  c #EEEEEE",
"1  c #868686",
"2  c #3C3C3C",
"3  c #929292",
"4  c #BABABA",
"5  c #656565",
"6  c #B8B8B8",
"7  c #0F0F0F",
"8  c #555555",
"9  c #2E2E2E",
"0  c #D9D9D9",
"a  c #CACACA",
"b  c #696969",
"c  c #717171",
"d  c #B9B9B9",
"e  c #C1C1C1",
"f  c #545454",
"g  c #0C0C0C",
"h  c #565656",
"i  c #E5E5E5",
"j  c #000000",
"k  c #5B5B5B",
"l  c #F8F8F8",
"m  c #AFAFAF",
"n  c #2B2B2B",
"o  c #C4C4C4",
"p  c #B6B6B6",
"q  c #C9C9C9",
"r  c #D0D0D0",
"s  c #DBDBDB",
"t  c #C8C8C8",
"u  c #777777",
"v  c #E2E2E2",
"w  c #848484",
"x  c #A9A9A9",
"y  c #B1B1B1",
"z  c #D6D6D6",
"A  c #DADADA",
"B  c #D7D7D7",
"C  c #878787",
"D  c #CBCBCB",
"E  c #454545",
"F  c #4F4F4F",
"G  c #7E7E7E",
"H  c #9B9B9B",
"I  c #CDCDCD",
"J  c #707070",
"K  c #646464",
"L  c #9D9D9D",
"M  c #AEAEAE",
"N  c #6D5D00",
"O  c #1B170B",
"P  c #9C9C9C",
"Q  c #1C1C1C",
"R  c #1F1F1F",
"S  c #141414",
"T  c #959386",
"U  c #D0B722",
"V  c #F7C300",
"W  c #674A00",
"X  c #161307",
"Y  c #CDAE00",
"Z  c #FCCB00",
"`  c #EFB000",
" . c #BA8200",
".. c #967100",
"+. c #1E1A0F",
"@. c #4B4B4B",
"#. c #1F1800",
"$. c #BA9900",
"%. c #DEA700",
"&. c #E6A300",
"*. c #CF9400",
"=. c #A66800",
"-. c #A37300",
";. c #909090",
">. c #C5C5C5",
",. c #838383",
"'. c #080808",
"). c #A38500",
"!. c #DCA300",
"~. c #AC6F00",
"{. c #B77C00",
"]. c #B27600",
"^. c #836100",
"/. c #BCBCBC",
"(. c #978000",
"_. c #B67F00",
":. c #B07600",
"<. c #B17700",
"[. c #B98000",
"}. c #B37A00",
"|. c #806000",
"1. c #858585",
"2. c #727272",
"3. c #D8D8D8",
"4. c #1E1C0F",
"5. c #B89700",
"6. c #BD8600",
"7. c #BB8400",
"8. c #B67E00",
"9. c #C48E00",
"0. c #C08A00",
"a. c #553F00",
"b. c #979797",
"c. c #444444",
"d. c #2E2700",
"e. c #D0A900",
"f. c #BE8A00",
"g. c #C38E00",
"h. c #C79200",
"i. c #D4A300",
"j. c #1C1400",
"k. c #161616",
"l. c #9A9A9A",
"m. c #2E2600",
"n. c #D9AD00",
"o. c #CA9A00",
"p. c #C39200",
"q. c #CFA300",
"r. c #DAA100",
"s. c #2B1D00",
"t. c #594900",
"u. c #D5AA00",
"v. c #D6A600",
"w. c #D09B00",
"x. c #ABABAB",
"y. c #8F8F8F",
"z. c #776000",
"A. c #9D7800",
"B. c #2B230F",
"                                                                ",
"                                                                ",
"                                                                ",
"                                                                ",
"                                                                ",
"                                                                ",
"              . + @                                             ",
"              + # $ % .               & + * = -                 ",
"              @ ; > , * ,           ' ) ! ~ { -                 ",
"              , ] ^ / ( _           : < [ } & | 1 -             ",
"                2 3 . 4 @ .       & 5 , 6 7 | _ 8 7             ",
"                . 2 9 0 a +       b c d e f g h i j             ",
"                    ' k l m @   & n o p q r s > t 2             ",
"                      _ u v w + n # x y z A v B n -             ",
"                        @ C D E F G H I 4 J K % &               ",
"                          n L M * N O P Q - ,                   ",
"                        & R S T U V W j &                       ",
"                      & n # X Y Z `  ...+..                     ",
"                - @.2 n # x #.$.%.&.*.=.-.+.                    ",
"              b @ ;.>.a x y ,.'.).!.~.{.].^.@                   ",
"            , @ < y d /.y I ~ '.(._.:.<.[.}.|._                 ",
"            b 1.y 2.P t 3.>.Q - 4.5.6.7.8.9.0.a.'               ",
"            2 b.c.@.7 m A x 2   . d.e.f.g.f.h.i.j.              ",
"            1 k.b | @.l.v L _     & m.n.o.p.q.r.s..             ",
"                  _ h i B n ,       b t.u.v.w.s.'               ",
"                  Q x.y.Q &           _ z.A.B.&                 ",
"                  1 ' '                 _ @..                   ",
"                                                                ",
"                                                                ",
"                                                                ",
"                                                                ",
"                                                                "};
