/* XPM */
static const char * progressDetails_xpm[] = {
"32 32 3 1",
"   c None",
".  c #000000",
"+  c #0000F8",
"                                ",
"                                ",
"                                ",
"                                ",
"  .                             ",
"  .                             ",
"  .                             ",
"  .           ++++              ",
"  .           ++++              ",
"  .           ++++              ",
"  .           ++++              ",
"  .           ++++              ",
"  .           ++++              ",
"  .           ++++              ",
"  .           ++++   ++++       ",
"  .           ++++   ++++       ",
"  .           ++++   ++++       ",
"  .           ++++   ++++       ",
"  .           ++++   ++++       ",
"  .           ++++   ++++       ",
"  .    ++++   ++++   ++++       ",
"  .    ++++   ++++   ++++       ",
"  .    ++++   ++++   ++++       ",
"  .    ++++   ++++   ++++       ",
"  .    ++++   ++++   ++++       ",
"  .    ++++   ++++   ++++       ",
"  .    ++++   ++++   ++++       ",
"  .    ++++   ++++   ++++       ",
"  .    ++++   ++++   ++++       ",
"  ...........................   ",
"                                ",
"                                "};
