/* XPM */
static const char * properties_xpm[] = {
"32 32 6 1",
"   c None",
".  c #000000",
"+  c #FFFFFF",
"@  c #8B979B",
"#  c #3FB0EA",
"$  c #E6EAEC",
"                                ",
"                                ",
"                                ",
"                                ",
"                                ",
"                                ",
"                                ",
"                                ",
"                                ",
"          .........             ",
"          .+++++++.+            ",
"          .+++++++.++ @         ",
"          .+######....@         ",
"          .++$$$$$$$$.@         ",
"          .+########+.@         ",
"          .++$$$$$$$$.@         ",
"          .+########+.@         ",
"          .++$$$$$$$$.@         ",
"          .+########+.@         ",
"          .++$$$$$$$$.@         ",
"          .++++++++++.@         ",
"          ............@         ",
"            @@@@@@@@@@@         ",
"                                ",
"                                ",
"                                ",
"                                ",
"                                ",
"                                ",
"                                ",
"                                ",
"                                "};
