/* XPM */
static const char * removeTerm_xpm[] = {
"32 32 98 2",
"   c None",
".  c #A094A0",
"+  c #787078",
"@  c #585858",
"#  c #484848",
"$  c #383838",
"%  c #383438",
"&  c #B8A8B8",
"*  c #706870",
"=  c #B0B0B0",
"-  c #F8FCF8",
";  c #E0E0E0",
">  c #B8BCB8",
",  c #989C98",
"'  c #888888",
")  c #707070",
"!  c #383C38",
"~  c #C0B4C0",
"{  c #685C68",
"]  c #505050",
"^  c #C0C4C0",
"/  c #E8ECE8",
"(  c #F0F0F0",
"_  c #909090",
":  c #505450",
"<  c #202020",
"[  c #908090",
"}  c #A8A0A8",
"|  c #707470",
"1  c #A0A0A0",
"2  c #282C28",
"3  c #808880",
"4  c #686868",
"5  c #282828",
"6  c #000000",
"7  c #504C50",
"8  c #807880",
"9  c #908490",
"0  c #B8B8B8",
"a  c #787C78",
"b  c #303430",
"c  c #283030",
"d  c #808480",
"e  c #484C48",
"f  c #888C88",
"g  c #F8F8F8",
"h  c #D0D0D0",
"i  c #A8ACA8",
"j  c #909490",
"k  c #787878",
"l  c #585C58",
"m  c #101410",
"n  c #A8A8A8",
"o  c #E0E4E0",
"p  c #D8D8D8",
"q  c #C8C8C8",
"r  c #A0A4A0",
"s  c #989898",
"t  c #706C68",
"u  c #404040",
"v  c #181418",
"w  c #303030",
"x  c #B8C0B8",
"y  c #C8D0C8",
"z  c #F0F4F0",
"A  c #E8E4E0",
"B  c #D0D4D0",
"C  c #C0C0C0",
"D  c #C8CCC8",
"E  c #404440",
"F  c #181C18",
"G  c #181818",
"H  c #989098",
"I  c #808080",
"J  c #101010",
"K  c #080C08",
"L  c #504850",
"M  c #B0A4B0",
"N  c #081010",
"O  c #606060",
"P  c #202420",
"Q  c #686C68",
"R  c #282C30",
"S  c #383430",
"T  c #283028",
"U  c #303830",
"V  c #303438",
"W  c #302C28",
"X  c #586058",
"Y  c #282428",
"Z  c #B8B0B8",
"`  c #605C60",
" . c #787870",
".. c #403C40",
"+. c #706C70",
"@. c #484448",
"#. c #887C88",
"$. c #C0B0C0",
"                        . + @ # $ % # + &                       ",
"                      * = - - ; > , ' ) ! .                     ",
"              ~ . + { ] ^ / ( ( ; > _ : < $ [ }                 ",
"          & * # : | 1 : 2 | 3 | 4 : 5 6 6 # ] $ 7 8             ",
"        9 # | ^ - - - 0 a | @ b 5 2 2 c # d , _ a e @ }         ",
"        $ f ; - - - - - g h i j ' d f , 1 _ f _ f k l 7         ",
"        m n h / g - - - - - g ( o p q 0 i r s _ t : u v         ",
"        w a x y p o / ( z - - - z A B C n _ ) : % 2 w 5         ",
"        b ! : ' > B D ^ 0 = n r 1 s f k 4 @ E 5 F G < 7         ",
"        H # w b ! @ | I d I a k | 4 l # ! w < J K J L M         ",
"          ~ 6 $ w b ! b 5 < G m m G G G G G G J N 6             ",
"            6 s s E k O # F P G G m 2 5 w G Q R < 6             ",
"            6 1 > Q z - - k ( B C : q d ) c ' b < 6             ",
"            6 1 > Q z - - k ( B C : D d ) 2 ' b < 6             ",
"            6 1 > Q z - - k ( B C : D d ) w ' S P 6             ",
"            6 1 > Q z - - k ( B C : q d ) R ' b < 6             ",
"            6 1 > Q z - - k ( B C : D d ) T ' b P 6             ",
"            6 1 > Q z - - k ( B C : D d ) T ' % P 6             ",
"            6 1 > Q z - - k ( B C : D d ) T ' U P 6             ",
"            6 1 > Q z - - k ( B C : D d ) T ' V < 6             ",
"            6 1 > Q z - - k ( B C : D d ) 2 ' U P 6             ",
"            6 1 > Q z - - k ( B C : D d ) W ' S < 6             ",
"            6 1 > Q z - - k ( B C : D d ) W ' V P 6             ",
"            6 1 > Q z - - k ( B C : D d ) R ' V < 6             ",
"            6 1 > Q z - - k ( B C : q d ) c ' b < 6             ",
"            6 1 > Q z - - k ( B C : D d ) 2 ' b < 6             ",
"            6 1 > Q z - - k ( B C : D d ) w ' S P 6             ",
"            6 1 > j z - - k ( B C : q d ) u k b < 6             ",
"            b 1 > p / - - r ( B C | = d ) X # b P G             ",
"            # # _ p / - - z o B C i s d ) X # 5 J Y             ",
"            Z ` 2 w l ' i C q q = j  .@ ! P J J ..&             ",
"                  } ' +.] b F K 6 m < w @.` #.$.                "};
