/* XPM */
static const char * removeItem_xpm[] = {
"32 32 90 1",
"   c None",
".  c #E11137",
"+  c #E22D4E",
"@  c #ECDEE1",
"#  c #E01E42",
"$  c #DF012A",
"%  c #C32A46",
"&  c #D6D6D6",
"*  c #E9BFC7",
"=  c #CC183A",
"-  c #B6475B",
";  c #E4E4E4",
">  c #F08095",
",  c #E7CBD0",
"'  c #FDFDFD",
")  c #FCFCFC",
"!  c #C8BABC",
"~  c #B76473",
"{  c #EBEBEB",
"]  c #FEF0F3",
"^  c #E74160",
"/  c #DF0F36",
"(  c #B56F7C",
"_  c #8A8A8A",
":  c #DCDCDC",
"<  c #FAFAFA",
"[  c #D4C6C8",
"}  c #CD193A",
"|  c #B9818B",
"1  c #F1F1F1",
"2  c #FAD0D8",
"3  c #E22044",
"4  c #DE294B",
"5  c #9D737B",
"6  c #7D7D7D",
"7  c #B4B4B4",
"8  c #F6F6F6",
"9  c #D8082F",
"0  c #CC5D71",
"a  c #E01036",
"b  c #D63E5A",
"c  c #897B7E",
"d  c #868686",
"e  c #C4C4C4",
"f  c #F4F4F4",
"g  c #D90930",
"h  c #C42C48",
"i  c #757575",
"j  c #929292",
"k  c #EA607A",
"l  c #D7072D",
"m  c #D6062C",
"n  c #8D636B",
"o  c #DBDBDB",
"p  c #EC617A",
"q  c #C33852",
"r  c #5F5154",
"s  c #C81334",
"t  c #C79DA5",
"u  c #F7F7F7",
"v  c #C33953",
"w  c #656565",
"x  c #939393",
"y  c #C3B5B8",
"z  c #EE7188",
"A  c #D21D3E",
"B  c #606060",
"C  c #959595",
"D  c #E2E2E2",
"E  c #F6B0BD",
"F  c #DC0B31",
"G  c #6B4F54",
"H  c #808080",
"I  c #DEDEDE",
"J  c #CE6C7E",
"K  c #ED7D91",
"L  c #A62940",
"M  c #666666",
"N  c #CACACA",
"O  c #B35163",
"P  c #A8A8A8",
"Q  c #B1B1B1",
"R  c #6F6F6F",
"S  c #9C9C9C",
"T  c #F0F0F0",
"U  c #E5E5E5",
"V  c #919191",
"W  c #EAEAEA",
"X  c #E8E8E8",
"Y  c #F3F3F3",
"                                ",
"                                ",
"                                ",
"                                ",
"                                ",
"     .++@                       ",
"     #$$%&&                     ",
"     #$$%&&                     ",
"     *==$--;        >$$,''      ",
"     )!!=$$~{{   ]^^/((_::'     ",
"     )!!=$$~{{   ]^^/((_::'     ",
"      <<[}}$||122344566788      ",
"        '[[}990aabccdeef        ",
"        '[[}990aabccdeef        ",
"         ''[gg$hhijj&<<         ",
"           k$$lmmnoo            ",
"           k$$lmmnoo            ",
"         pp$qqrsslttu           ",
"        p$$vwwxyy}99tuu         ",
"        p$$vwwxyy}99tuu         ",
"      zz$AABCCD''[}}9ttu        ",
"     E$$FGGHII   '[[%$$J11      ",
"     E$$FGGHII   '[[%$$J11      ",
"     K$$LMMN''    ''&OO9PP8     ",
"     fQQRSST         UUPVVW     ",
"     fQQRSST         UUPVVW     ",
"      ffXYY            8WW      ",
"                                ",
"                                ",
"                                ",
"                                ",
"                                "};
