/* XPM */
static const char * search_xpm[] = {
"32 32 141 2",
"   c None",
".  c #E1E2E3",
"+  c #BCC0C3",
"@  c #9CA3A7",
"#  c #868E93",
"$  c #848C8F",
"%  c #999FA2",
"&  c #B9BCBE",
"*  c #E0E1E1",
"=  c #D5D7D8",
"-  c #A0A6AA",
";  c #ABB2B5",
">  c #D5D7D9",
",  c #F2F3F3",
"'  c #F3F4F4",
")  c #D3D5D6",
"!  c #A5ABAF",
"~  c #989C9F",
"{  c #D1D2D3",
"]  c #BEC3C5",
"^  c #FFFFFF",
"/  c #FEFFFF",
"(  c #FEFEFF",
"_  c #F8FAFE",
":  c #EFF5FD",
"<  c #AEB6BE",
"[  c #94999A",
"}  c #DEDFDF",
"|  c #FDFEFF",
"1  c #F6F9FD",
"2  c #F0F4FC",
"3  c #E8F0FB",
"4  c #DEE8FA",
"5  c #9199A4",
"6  c #B0B2B2",
"7  c #9CA3A6",
"8  c #D4D6D8",
"9  c #F7FAFE",
"0  c #EFF4FD",
"a  c #E9F0FB",
"b  c #E2ECFA",
"c  c #D7E3F9",
"d  c #ABB9CD",
"e  c #888C8D",
"f  c #848C91",
"g  c #FDFDFE",
"h  c #F9FBFD",
"i  c #F0F7FC",
"j  c #E9F0FA",
"k  c #E2EBFA",
"l  c #D9E5F9",
"m  c #D1E1F8",
"n  c #B9CCE9",
"o  c #6A6E6E",
"p  c #828A8E",
"q  c #F2F2F3",
"r  c #F9FAFD",
"s  c #F3F6FC",
"t  c #EAF0FB",
"u  c #E1ECFB",
"v  c #DAE5F8",
"w  c #D2E0F6",
"x  c #C9D9F6",
"y  c #B2C6E7",
"z  c #696D6B",
"A  c #979DA0",
"B  c #D1D3D4",
"C  c #F9FBFE",
"D  c #F1F5FD",
"E  c #EAF2FB",
"F  c #E3ECFB",
"G  c #DAE7F9",
"H  c #D3E2F7",
"I  c #CADCF7",
"J  c #BED4F4",
"K  c #9AACC6",
"L  c #818383",
"M  c #B8BBBC",
"N  c #A1A6A9",
"O  c #F0F5FD",
"P  c #E7EFFB",
"Q  c #DFEBFA",
"R  c #D0DFF8",
"S  c #C8D9F6",
"T  c #BFD4F5",
"U  c #B8CFF4",
"V  c #7A8492",
"W  c #A3A39E",
"X  c #E0E0E1",
"Y  c #959A9C",
"Z  c #A8B0B7",
"`  c #DCE7FA",
" . c #D4E1F8",
".. c #CCDCF7",
"+. c #C3D6F6",
"@. c #BBD0F5",
"#. c #B7CFF4",
"$. c #8895A9",
"%. c #7F807E",
"&. c #98885C",
"*. c #D5CFC1",
"=. c #D0D1D2",
"-. c #909496",
";. c #8A929C",
">. c #A5B3C7",
",. c #B5C9E7",
"'. c #B0C4E6",
"). c #99A9C3",
"!. c #79828F",
"~. c #818483",
"{. c #CCBD82",
"]. c #E9DA98",
"^. c #AA9763",
"/. c #D4CEC0",
"(. c #AEB0B0",
"_. c #858887",
":. c #656967",
"<. c #626463",
"[. c #7E807F",
"}. c #7C7A6E",
"|. c #A5802D",
"1. c #E5B73E",
"2. c #F0DD91",
"3. c #EEDC93",
"4. c #D4CEBF",
"5. c #C5C1B8",
"6. c #5C4F2D",
"7. c #B08629",
"8. c #EFDC91",
"9. c #DCCE92",
"0. c #A18E5C",
"a. c #C1BDB3",
"b. c #5B4E2C",
"c. c #A2893F",
"d. c #B78F31",
"e. c #4A3D30",
"f. c #D8D4C9",
"g. c #BFBBB0",
"h. c #5D4E2B",
"i. c #41352C",
"j. c #BCB8B5",
"                                                                ",
"                                                                ",
"                                                                ",
"                                                                ",
"                                                                ",
"                                                                ",
"                                                                ",
"                                                                ",
"                                                                ",
"                      . + @ # $ % & *                           ",
"                    = - ; > , ' ) ! ~ {                         ",
"                  . - ] ^ ^ / ( _ : < [ }                       ",
"                  + ; ^ ^ ^ | 1 2 3 4 5 6                       ",
"                  7 8 ^ ^ ( 9 0 a b c d e                       ",
"                  f , ^ g h i j k l m n o                       ",
"                  p q ^ r s t u v w x y z                       ",
"                  A B C D E F G H I J K L                       ",
"                  M N O P Q l R S T U V W                       ",
"                  X Y Z `  ...+.@.#.$.%.&.*.                    ",
"                    =.-.;.>.,.'.).!.~.{.].^./.                  ",
"                      } (._.:.<.[.}.|.1.2.3.^.4.                ",
"                                  5.6.7.1.8.9.0.                ",
"                                    a.b.c.d.e.f.                ",
"                                      g.h.i.j.                  ",
"                                                                ",
"                                                                ",
"                                                                ",
"                                                                ",
"                                                                ",
"                                                                ",
"                                                                ",
"                                                                "};
