/* XPM */
static const char * startQuiz_xpm[] = {
"32 32 80 1",
"   c None",
".  c #9BA7AA",
"+  c #819496",
"@  c #48895F",
"#  c #65D468",
"$  c #919DA3",
"%  c #4A8D62",
"&  c #71E474",
"*  c #60C372",
"=  c #56B861",
"-  c #4E8168",
";  c #ACB1B8",
">  c #4A8C62",
",  c #7DF379",
"'  c #65CB73",
")  c #5FBF73",
"!  c #60C470",
"~  c #4FA85E",
"{  c #5B7F75",
"]  c #C1C3C7",
"^  c #498B61",
"/  c #79EB75",
"(  c #6ED96E",
"_  c #5EC46C",
":  c #469758",
"<  c #7A8F90",
"[  c #488A5F",
"}  c #75E372",
"|  c #6FD96D",
"1  c #63C76E",
"2  c #5EBE72",
"3  c #59BD66",
"4  c #49885F",
"5  c #9AA6AA",
"6  c #47895F",
"7  c #69CF67",
"8  c #63C763",
"9  c #54B567",
"0  c #53B466",
"a  c #52B365",
"b  c #53B565",
"c  c #56C062",
"d  c #469955",
"e  c #B7BBC0",
"f  c #47895E",
"g  c #64C863",
"h  c #4BB055",
"i  c #2F9444",
"j  c #2B8E40",
"k  c #329747",
"l  c #359E48",
"m  c #3D984D",
"n  c #5B8075",
"o  c #46885D",
"p  c #5ABD5C",
"q  c #359E49",
"r  c #2F9243",
"s  c #2C8F3F",
"t  c #309444",
"u  c #3DA149",
"v  c #43795C",
"w  c #45875D",
"x  c #5EC05E",
"y  c #44AA51",
"z  c #329C48",
"A  c #3BA446",
"B  c #3D8254",
"C  c #87959C",
"D  c #45875C",
"E  c #54B859",
"F  c #339E4A",
"G  c #3AA74A",
"H  c #3D914E",
"I  c #71888A",
"J  c #43865B",
"K  c #48B851",
"L  c #40A14E",
"M  c #557C71",
"N  c #5E8277",
"O  c #488061",
"                                ",
"                                ",
"                                ",
"    ..++                        ",
"    ..++                        ",
"    @@##@@$$                    ",
"    @@##@@$$                    ",
"    %%&&**==--;;                ",
"    %%&&**==--;;                ",
"    >>,,''))!!~~{{]]            ",
"    >>,,''))!!~~{{]]            ",
"    ^^//(())))))__::<<          ",
"    ^^//(())))))__::<<          ",
"    [[}}||11))))22))334455      ",
"    [[}}||11))))22))334455      ",
"    66||77889900aabb99ccddee    ",
"    66||77889900aabb99ccddee    ",
"    ff77gghhiijjiikkllmmnn      ",
"    ff77gghhiijjiikkllmmnn      ",
"    ooggppqqrrssttuuvv;;        ",
"    ooggppqqrrssttuuvv;;        ",
"    wwxxyyzzkkAABBCC            ",
"    wwxxyyzzkkAABBCC            ",
"    DDEEFFGGHHII                ",
"    DDEEFFGGHHII                ",
"    JJKKLLMM                    ",
"    JJKKLLMM                    ",
"    NNOO                        ",
"    NNOO                        ",
"                                ",
"                                ",
"                                "};
